<svg width="58" height="66" viewBox="0 0 58 66" fill="none" xmlns="http://www.w3.org/2000/svg">
<path d="M14.3273 15.9473C14.3273 12.6469 14.3273 9.31875 14.3273 6.01836C14.3556 1.99688 16.4258 0 20.5662 0C28.0814 0 35.5965 0 43.1116 0C46.8266 0 49.0386 2.13555 49.0386 5.74102C49.0386 9.06914 49.0386 12.3973 49.0386 15.8086C52.4984 15.2539 55.6746 15.3926 57.3761 18.8594C58.5388 21.2168 57.9433 23.4633 56.1283 25.3492C58.5105 28.9824 58.5105 30.9516 56.3835 33.5031C56.9224 35.1117 57.7731 36.5539 57.8015 37.9961C57.8298 39.4383 57.0074 40.9082 56.4403 42.7109C58.0851 44.5414 58.6523 47.0375 56.9224 49.6168C55.0507 52.418 52.1864 52.418 49.0102 51.891C49.0102 52.418 49.0102 52.8895 49.0102 53.3887C48.9252 56.2731 46.7982 58.5195 43.8489 58.5473C42.3742 58.575 41.325 59.0465 40.219 59.934C36.7592 62.6797 32.5904 63.9277 28.2799 64.5934C27.1455 64.7598 26.2664 65.1481 25.5574 66.0633C24.4798 67.45 23.3171 68.809 22.0693 70.0848C21.6155 70.5563 20.8215 70.9445 20.1692 70.9723C13.0795 71.0277 5.98977 71 -1.09995 71.0277C-2.43282 71 -3 70.4453 -3 69.1695C-3 65.7027 -3 62.2359 -2.97164 58.7691C-2.97164 58.2977 -2.85821 57.6598 -2.54626 57.3547C0.346351 54.3871 1.59414 50.8648 1.93445 46.8156C2.13296 44.375 3.32404 42.0453 3.89121 39.6324C4.40167 37.4414 4.96885 35.2227 5.05393 33.0039C5.22408 27.7066 5.11065 22.3816 5.11065 17.0566C5.11065 13.9504 6.92562 12.5914 9.9033 13.6453C11.4063 14.2 12.7675 15.143 14.3273 15.9473ZM36.7025 58.6027C36.2487 58.6027 35.795 58.6027 35.3696 58.6027C30.265 58.6027 25.1604 58.6305 20.0558 58.6027C16.5393 58.575 14.4124 56.4949 14.3556 53.0836C14.3273 50.9203 14.3556 48.7293 14.3556 46.566C14.3556 45.6231 14.4691 44.7078 15.6885 44.6801C16.9647 44.6524 17.2199 45.5398 17.2199 46.566C17.2199 48.5906 17.2199 50.643 17.2199 52.6676C17.2199 55.025 18.0139 55.8016 20.4528 55.8016C27.9112 55.8016 35.3696 55.8016 42.8563 55.8016C45.437 55.8016 46.2311 55.025 46.2311 52.5012C46.2311 37.0254 46.2311 21.5496 46.2311 6.07383C46.2311 5.74102 46.2594 5.43594 46.2027 5.10313C46.0609 3.85508 45.2952 2.93984 44.0758 2.85664C41.8354 2.71797 39.5667 2.80117 37.3547 2.80117C36.6741 6.48984 34.9726 8.29258 32.0516 8.40352C29.0739 8.51445 26.6634 6.93359 26.0395 2.77344C24.2245 2.77344 22.3812 2.77344 20.5379 2.77344C18.0707 2.77344 17.2483 3.60547 17.2199 6.01836C17.2199 13.7285 17.2199 21.4387 17.2199 29.1766C17.2199 30.6188 17.2199 32.0332 17.2199 33.4754C17.2199 34.4184 16.8229 35.1672 15.7736 35.1949C14.696 35.1949 14.3556 34.4738 14.3556 33.5031C14.3556 32.6711 14.3556 31.8391 14.3556 31.007C14.2989 28.1504 14.384 25.266 14.1288 22.4371C13.8168 19.109 11.1511 16.502 7.9749 16.1969C7.9749 16.6961 7.9749 17.1953 7.9749 17.6945C7.9749 22.6867 7.94654 27.6789 7.9749 32.6711C8.00325 35.5277 7.40772 38.2457 6.52859 40.9359C5.67782 43.5152 4.62855 46.1777 4.54347 48.8125C4.43003 52.5566 2.84193 55.3856 0.488145 58.0758C0.232915 58.3809 -0.050674 58.7969 -0.0790329 59.1574C-0.135751 62.1527 -0.107392 65.1481 -0.107392 68.282C0.544863 68.282 1.05532 68.282 1.56578 68.282C6.52859 68.282 11.4914 68.1156 16.4542 68.3375C19.0916 68.4762 20.9916 67.8383 22.3245 65.6195C23.8275 63.1789 25.9261 61.6813 28.9321 61.6813C29.1306 61.6813 29.3008 61.6258 29.4993 61.5981C32.0232 60.9602 34.5188 60.2391 36.7025 58.6027ZM49.0386 21.1891C49.0386 23.3801 49.6625 24.0734 51.676 24.0457C53.7745 24.0457 55.079 22.9086 55.0507 21.1336C55.0223 19.4141 53.7462 18.3602 51.7043 18.3324C49.6908 18.3324 49.0386 19.0258 49.0386 21.1891ZM49.0386 37.9961C49.0386 40.2703 49.6058 40.9082 51.5909 40.9359C53.7178 40.9637 55.0507 39.882 55.0507 38.1348C55.0507 36.3598 53.7745 35.2504 51.6476 35.2504C49.6908 35.2504 49.0386 35.916 49.0386 37.9961ZM49.0386 29.6481C49.0386 31.8391 49.6058 32.4492 51.7043 32.4492C53.7745 32.4492 55.0223 31.423 55.0507 29.7035C55.079 27.9008 53.8312 26.8469 51.676 26.8469C49.5774 26.8469 49.0386 27.457 49.0386 29.6481ZM49.0386 46.5106C49.0386 48.7016 49.6341 49.3672 51.676 49.3672C53.8029 49.3672 55.079 48.2856 55.0507 46.4828C55.0223 44.7633 53.7745 43.7371 51.7043 43.7371C49.6058 43.7094 49.0386 44.3195 49.0386 46.5106ZM34.2636 2.85664C32.5337 2.85664 30.8605 2.85664 29.1874 2.85664C29.1874 4.63164 30.0665 5.60234 31.6546 5.63008C33.186 5.65781 34.1502 4.71484 34.2636 2.85664Z" fill="black"/>
</svg>
