<svg width="69" height="68" viewBox="0 0 69 68" fill="none" xmlns="http://www.w3.org/2000/svg">
<path d="M34.4203 67.9999C15.6407 67.9733 0.473472 52.7265 0.500035 33.9202C0.526597 15.1405 15.7735 -0.026665 34.5797 -0.000102493C53.3328 0.02646 68.5 15.2733 68.5 34.0796C68.4735 52.8327 53.2266 67.9999 34.4203 67.9999ZM58.3 51.9827C66.3485 42.4999 67.7828 24.4108 55.1922 12.2983C43 0.557709 23.45 1.32802 12.0282 14.1577C0.818785 26.7483 3.55472 43.8015 10.7532 51.9827C12.2407 48.6624 14.3125 45.7937 16.9953 43.3233C19.6516 40.8796 22.7328 39.1265 26.1328 37.8515C18.3766 31.4765 19.5719 21.7015 24.5922 16.7077C29.9313 11.4218 38.4313 11.2093 44.0094 16.389C46.7453 18.939 48.2328 22.1265 48.3922 25.8983C48.5782 30.8124 46.586 34.7171 42.8141 37.7983C50.1454 40.5874 55.0594 45.2624 58.3 51.9827ZM34.4735 40.5343C25.4953 40.5608 17.3407 46.1124 14.1266 54.3468C13.7547 55.2765 13.9141 55.8077 14.6578 56.4718C26.0797 66.4858 42.8672 66.5124 54.3157 56.5249C55.1125 55.8343 55.2719 55.2765 54.8735 54.2936C51.5797 46.0593 43.3985 40.5077 34.4735 40.5343ZM44.4078 26.7483C44.5141 21.2499 40.1844 16.7608 34.6329 16.6546C29.1875 16.5483 24.7516 20.8249 24.5922 26.3233C24.4328 31.8218 28.7625 36.3374 34.2875 36.4968C39.786 36.6296 44.3016 32.2733 44.4078 26.7483Z" fill="black"/>
</svg>
