<svg width="68" height="59" viewBox="0 0 68 59" fill="none" xmlns="http://www.w3.org/2000/svg">
<g clip-path="url(#clip0_1194_2575)">
<path d="M60.3076 44.6964C62.4163 45.3312 64.4045 45.9065 66.3726 46.5017C68.2403 47.077 68.5817 48.188 67.0353 49.3584C64.9668 50.886 64.7459 52.6516 65.4086 54.9132C65.8705 56.4607 64.9668 57.1947 63.3602 56.8178C58.5805 55.6473 53.7808 54.4966 48.981 53.3658C48.017 53.1476 47.6354 52.6516 47.7961 51.6994C47.9367 50.8067 48.0572 49.9139 48.2379 48.6244C47.6555 49.0212 47.3744 49.1997 47.0932 49.3981C43.2173 52.4136 39.3413 55.4489 35.4653 58.4644C34.3809 59.3174 33.3567 59.1389 32.3525 58.3453C28.4966 55.31 24.6207 52.2747 20.7447 49.2394C20.5439 49.0807 20.323 48.9617 19.7607 48.6046C19.9213 49.7949 20.0217 50.6479 20.1824 51.5208C20.3832 52.6516 19.9414 53.1476 18.7967 53.4055C14.2178 54.457 9.63899 55.5679 5.08022 56.7186C2.97154 57.2542 2.14815 56.6789 2.71046 54.576C3.27278 52.4731 2.95145 50.9058 1.12393 49.4973C-0.603183 48.1681 -0.241694 47.077 1.86699 46.4422C3.75476 45.8668 5.66262 45.3312 7.69097 44.736C7.49014 43.8235 7.3094 42.9506 7.10857 42.0975C6.82741 40.9865 7.3094 40.312 8.37378 40.074C9.77957 39.7566 11.2054 39.459 12.8121 39.1217C12.551 38.6059 12.2899 38.1695 12.1092 37.7132C10.7837 34.3009 9.47833 30.9085 8.17296 27.4765C7.93196 26.8218 7.85163 26.1274 8.6951 25.8497C9.63899 25.5521 9.94023 26.2465 10.121 26.9607C11.1452 31.0871 12.7317 34.9953 14.981 38.7051C15.7642 38.5861 16.5274 38.467 17.4913 38.3282C17.2503 37.8521 17.0897 37.4751 16.8688 37.118C12.9326 30.4126 11.1653 23.2112 11.4464 15.4741C11.5067 14.1251 12.1092 13.3911 13.3945 13.0736C17.5917 12.0817 20.7046 9.74075 22.5923 5.87222C23.0743 4.90013 23.8375 4.46368 24.9219 4.46368C30.9668 4.46368 37.0318 4.46368 43.0767 4.46368C44.1611 4.46368 44.9243 4.90013 45.4063 5.87222C47.294 9.74075 50.4269 12.0817 54.6041 13.0736C55.9898 13.4109 56.512 14.2243 56.5522 15.5931C56.8132 23.3302 55.0259 30.5316 51.0495 37.2172C50.9089 37.4354 50.7884 37.6735 50.6679 37.9116C50.6278 37.9909 50.6479 38.0703 50.6077 38.2885C51.3507 38.4274 52.1139 38.5662 52.9574 38.7249C55.0259 35.3921 56.512 31.841 57.5563 28.0915C57.6768 27.6748 57.7571 27.2384 57.8776 26.8218C58.0985 26.1671 58.4399 25.4529 59.2432 25.8497C59.6047 26.0282 59.9461 26.8813 59.8256 27.2979C59.183 29.5595 58.46 31.8013 57.6165 33.9835C56.9538 35.6896 56.0903 37.2966 55.2468 39.082C56.6727 39.3995 58.0785 39.697 59.4642 40.0145C60.7896 40.3319 61.1109 40.8477 60.8298 42.1769C60.6691 42.9704 60.4884 43.7838 60.3076 44.6964ZM34.0194 6.46738C31.1877 6.46738 28.3761 6.48722 25.5445 6.44754C24.8617 6.44754 24.46 6.58641 24.0985 7.26093C22.0903 11.1096 18.877 13.5696 14.6998 14.7202C13.7359 14.9781 13.4346 15.3948 13.4145 16.3073C13.294 23.8658 15.2621 30.8689 19.359 37.2371C19.6 37.614 20.3632 37.8322 20.8652 37.8124C22.4116 37.7529 23.9379 37.495 25.4642 37.3759C32.7542 36.8403 40.0241 36.9395 47.274 37.8322C47.6756 37.8917 48.3383 37.614 48.5593 37.2966C52.7164 30.8292 54.7046 23.7666 54.5238 16.1089C54.5037 15.3352 54.2627 14.998 53.4394 14.7798C49.1617 13.6093 45.8883 11.1295 43.7595 7.22125C43.5587 6.84432 42.916 6.50706 42.4541 6.48722C39.6827 6.44754 36.851 6.46738 34.0194 6.46738ZM58.8215 41.9785C46.7317 38.1695 17.3909 38.2687 9.17709 42.0777C9.41808 43.1291 9.63899 44.2004 9.90007 45.2519C10.1411 46.3033 10.4222 47.3349 10.7034 48.4657C26.2875 44.9344 41.7512 44.9543 57.3153 48.4657C57.8174 46.2438 58.3194 44.1409 58.8215 41.9785ZM45.1251 48.7038C42.7754 47.6722 41.2291 48.426 39.7229 49.8147C38.4376 50.9852 36.8912 51.8978 35.5055 52.9492C34.4813 53.7229 33.5173 53.7229 32.4931 52.9492C30.9467 51.7787 29.2397 50.8067 27.854 49.4775C26.388 48.0689 24.8818 48.0094 22.753 48.6442C26.629 51.5605 30.284 54.3181 33.9993 57.1153C37.7548 54.2784 41.3897 51.5407 45.1251 48.7038ZM65.6095 48.307C63.3803 47.692 61.6331 47.196 59.8457 46.7001C59.6047 47.6325 59.3437 48.3467 59.2633 49.0609C59.1428 50.1321 58.6207 50.6479 57.5362 50.8463C56.1907 51.0844 54.8652 51.5208 53.1984 51.9771C56.753 52.8897 59.9461 53.7229 63.4606 54.6355C62.336 51.997 62.6975 49.8742 65.6095 48.307ZM4.53799 54.6355C8.09262 53.7031 11.2858 52.8699 14.7601 51.9771C13.7158 51.6994 13.0129 51.382 12.2899 51.3225C9.87998 51.1042 8.41395 49.9933 8.31353 47.4738C8.31353 47.2754 8.21312 47.077 8.11271 46.7001C6.32535 47.196 4.59824 47.692 2.44939 48.307C5.2208 49.8544 5.72287 51.9375 4.53799 54.6355ZM33.9993 51.5605C35.6059 50.39 37.1121 49.2791 38.6384 48.188C38.5782 48.1086 38.5179 48.0293 38.4577 47.9499C35.4854 47.9499 32.5132 47.9499 29.5209 47.9499C29.4807 48.0293 29.4405 48.1086 29.4004 48.188C30.8865 49.2989 32.3927 50.39 33.9993 51.5605ZM17.9934 50.8067C17.8729 50.1123 17.7926 49.6759 17.7122 49.1402C16.688 49.3386 15.7642 49.5171 14.4588 49.775C15.8245 50.1718 16.8085 50.4496 17.9934 50.8067ZM50.2261 49.1402C50.1659 49.7354 50.1056 50.1917 50.0454 50.7868C51.2303 50.4297 52.1741 50.152 53.0979 49.8742C53.0979 49.7949 53.0779 49.7155 53.0779 49.6362C52.1541 49.4973 51.2503 49.3386 50.2261 49.1402Z" fill="black"/>
<path d="M9.13625 10.9509C9.13625 14.6012 9.13625 18.0333 9.11616 21.4654C9.11616 21.9216 9.03583 22.4176 8.83501 22.7945C8.73459 22.9929 8.15219 23.0921 7.9112 22.9929C7.60996 22.8541 7.28864 22.4771 7.24847 22.1597C6.76649 18.3309 6.80665 14.502 7.48947 10.693C7.73046 9.4035 8.69443 8.96705 9.93955 8.98689C12.1085 9.00672 14.1368 8.47108 15.9041 7.18157C17.6714 5.87223 18.7759 4.16611 19.1374 1.98386C19.3784 0.595158 20.0211 0.0198386 21.467 0.0198386C29.8415 0 38.1758 0 46.5302 0C47.7352 0 48.5586 0.515804 48.8196 1.7458C49.8439 6.28884 52.9165 8.80834 57.6761 8.98689C59.8651 9.06624 60.5078 9.48285 60.6283 11.6254C60.809 15.0178 60.7488 18.4102 60.7688 21.8026C60.7688 22.5565 60.4676 23.231 59.6442 22.9929C59.2626 22.8937 58.861 22.12 58.8409 21.6439C58.7204 18.2912 58.6802 14.9385 58.62 11.5857C58.62 11.427 58.5397 11.2485 58.4995 11.0501C52.4345 10.8716 48.2172 8.29253 46.731 2.10289C46.3896 2.08305 45.988 2.02354 45.6064 2.02354C37.8746 2.02354 30.1427 2.02354 22.4109 2.0037C21.5473 2.0037 21.1457 2.12273 20.9248 3.11466C20.001 7.37996 15.6832 10.7327 11.1043 10.9112C10.6023 10.9707 10.0801 10.9509 9.13625 10.9509Z" fill="black"/>
<path d="M34.0187 6.46738C36.8503 6.46738 39.6619 6.4277 42.4936 6.50706C42.9354 6.52689 43.5781 6.86415 43.799 7.24108C45.9277 11.1493 49.1811 13.6291 53.4788 14.7996C54.2821 15.0178 54.5432 15.3551 54.5633 16.1288C54.744 23.7865 52.7558 30.8689 48.5987 37.3164C48.3979 37.6338 47.7352 37.9116 47.3134 37.852C40.0636 36.9593 32.7936 36.8601 25.5036 37.3958C23.9573 37.5148 22.431 37.7727 20.9047 37.8322C20.4026 37.852 19.6395 37.6338 19.3985 37.2569C15.2615 30.8887 13.3134 23.9055 13.4138 16.3272C13.4339 15.3947 13.7352 14.998 14.6991 14.7401C18.8763 13.5696 22.0896 11.1294 24.0978 7.26092C24.4392 6.58641 24.861 6.44754 25.5438 6.44754C28.3755 6.48722 31.2071 6.46738 34.0187 6.46738Z" fill="#EC5658"/>
<path d="M58.8207 41.9785C58.3187 44.1409 57.8166 46.2438 57.2945 48.4855C41.7304 44.9741 26.2667 44.9741 10.6825 48.4855C10.4014 47.3547 10.1202 46.3033 9.87923 45.2717C9.61815 44.2202 9.39724 43.1489 9.15625 42.0975C17.3902 38.2488 46.731 38.1695 58.8207 41.9785Z" fill="#FFF3B1"/>
<path d="M45.126 48.7038C41.3906 51.5209 37.7557 54.2784 34.0002 57.1153C30.2849 54.3181 26.6299 51.5605 22.7539 48.6443C24.8827 48.0094 26.3889 48.0888 27.8549 49.4775C29.2406 50.8067 30.9476 51.7788 32.494 52.9492C33.5182 53.7229 34.4822 53.7229 35.5064 52.9492C36.9122 51.8978 38.4385 50.9852 39.7238 49.8147C41.23 48.4459 42.7764 47.692 45.126 48.7038Z" fill="white"/>
<path d="M65.6114 48.307C62.6994 49.8743 62.3379 52.0168 63.4224 54.6355C59.928 53.7229 56.7148 52.8897 53.1602 51.9771C54.827 51.5407 56.1525 51.1042 57.498 50.8463C58.5825 50.648 59.1046 50.1322 59.2251 49.0609C59.3055 48.3268 59.5665 47.6325 59.8075 46.7001C61.615 47.196 63.3822 47.6722 65.6114 48.307Z" fill="#FFE380"/>
<path d="M4.53782 54.6355C5.7227 51.9375 5.22063 49.8544 2.44922 48.2872C4.59807 47.6722 6.32518 47.196 8.11254 46.6802C8.21295 47.0373 8.31336 47.2357 8.31336 47.4539C8.39369 49.9933 9.85973 51.0844 12.2897 51.3026C13.0127 51.3621 13.7357 51.6796 14.7599 51.9573C11.2856 52.8699 8.09245 53.7031 4.53782 54.6355Z" fill="#FFE380"/>
<path d="M34.0013 51.5605C32.3947 50.39 30.9085 49.2791 29.4023 48.188C29.4425 48.1086 29.4827 48.0292 29.5228 47.9499C32.4951 47.9499 35.4673 47.9499 38.4596 47.9499C38.5199 48.0292 38.5801 48.1086 38.6404 48.188C37.1141 49.2989 35.5878 50.39 34.0013 51.5605Z" fill="#EC5658"/>
<path d="M17.9955 50.8066C16.8106 50.4694 15.8266 50.1718 14.4609 49.775C15.7663 49.5171 16.6901 49.3386 17.7143 49.1402C17.7947 49.656 17.875 50.1123 17.9955 50.8066Z" fill="#FFE380"/>
<path d="M50.2276 49.1402C51.2518 49.3187 52.1556 49.4775 53.0794 49.6362C53.0794 49.7155 53.0994 49.7949 53.0994 49.8742C52.1556 50.152 51.2117 50.4495 50.0469 50.7868C50.1071 50.2115 50.1674 49.7354 50.2276 49.1402Z" fill="#FFE380"/>
</g>
<defs>
<clipPath id="clip0_1194_2575">
<rect width="68" height="59" fill="white"/>
</clipPath>
</defs>
</svg>
