<svg width="16" height="16" viewBox="0 0 16 16" fill="none" xmlns="http://www.w3.org/2000/svg">
<g clip-path="url(#clip0_1194_1925)">
<path d="M12.6859 2.49902C12.6859 2.72393 12.6922 2.92385 12.6859 3.11752C12.6734 3.49238 12.3984 3.75478 12.0484 3.74853C11.7109 3.74228 11.4547 3.48613 11.4359 3.12377C11.4297 2.9301 11.4359 2.73018 11.4359 2.51776C10.4922 2.51776 9.56719 2.51776 8.59844 2.51776C8.59844 2.69894 8.60469 2.88012 8.59844 3.0613C8.57969 3.47988 8.34219 3.74228 7.98594 3.74853C7.61719 3.75478 7.36719 3.48613 7.34844 3.05505C7.34219 2.88012 7.34844 2.70519 7.34844 2.51776C6.40469 2.51776 5.49219 2.51776 4.54219 2.51776C4.54219 2.66145 4.54219 2.7989 4.54219 2.9301C4.53594 3.46739 4.31094 3.76102 3.90469 3.75478C3.51094 3.74853 3.28594 3.46114 3.28594 2.94884C3.28594 2.81139 3.28594 2.6802 3.28594 2.53025C2.94219 2.53025 2.61719 2.49277 2.30469 2.5365C1.66719 2.61772 1.25469 3.13627 1.25469 3.811C1.24844 5.14173 1.25469 6.47871 1.25469 7.80944C1.25469 9.63998 1.25469 11.4705 1.25469 13.3073C1.25469 14.2507 1.74844 14.7442 2.69844 14.7442C4.19844 14.7442 5.69844 14.7442 7.19844 14.7442C7.65469 14.7442 7.93594 15.0254 7.89844 15.4252C7.86719 15.7438 7.62969 15.9875 7.29844 15.9875C5.62969 15.9937 3.96719 16.025 2.29844 15.975C1.04844 15.9438 0.0109375 14.8192 0.0046875 13.5634C-0.0015625 10.2647 -0.0015625 6.96602 0.0046875 3.66731C0.0109375 2.36782 1.12969 1.27449 2.42969 1.2495C2.69844 1.24326 2.96719 1.2495 3.27969 1.2495C3.27969 1.03084 3.26719 0.837165 3.27969 0.643491C3.31094 0.249895 3.56094 -7.56949e-06 3.91094 -7.56949e-06C4.26094 -7.56949e-06 4.51094 0.249895 4.53594 0.643491C4.54844 0.830918 4.53594 1.01834 4.53594 1.22451C5.47969 1.22451 6.39844 1.22451 7.34844 1.22451C7.34844 1.01834 7.33594 0.818423 7.34844 0.624748C7.37344 0.249895 7.62344 0.00623999 7.96094 -7.56949e-06C8.31094 -0.00625513 8.56719 0.243647 8.59844 0.630996C8.61094 0.82467 8.59844 1.02459 8.59844 1.23076C9.55469 1.23076 10.4797 1.23076 11.4422 1.23076C11.4422 1.03084 11.4359 0.837165 11.4422 0.643491C11.4484 0.268638 11.7109 -7.56949e-06 12.0609 -7.56949e-06C12.4109 -7.56949e-06 12.6734 0.26239 12.6859 0.637244C12.6922 0.82467 12.6859 1.0121 12.6859 1.2495C12.9297 1.2495 13.1672 1.2495 13.3984 1.2495C14.9172 1.2495 15.9922 2.32408 15.9984 3.84224C15.9984 4.95431 15.9984 6.07262 15.9984 7.18469C15.9984 7.6595 15.7547 7.94689 15.3609 7.93439C14.9797 7.9219 14.7547 7.64701 14.7547 7.18469C14.7547 6.09136 14.7547 4.99804 14.7547 3.90472C14.7547 3.01756 14.2484 2.50526 13.3672 2.49902C13.1547 2.49902 12.9484 2.49902 12.6859 2.49902Z" fill="black"/>
<path d="M16 12.214C16 14.3007 14.2937 15.9938 12.2 15.9875C10.125 15.9813 8.4375 14.2819 8.4375 12.2077C8.4375 10.1211 10.1438 8.42797 12.2375 8.43422C14.3125 8.44047 16 10.1398 16 12.214ZM14.75 12.2077C14.75 10.827 13.6063 9.68373 12.2188 9.68373C10.8375 9.68373 9.69375 10.8208 9.6875 12.2015C9.68125 13.601 10.8312 14.7443 12.2312 14.738C13.6187 14.738 14.7563 13.5885 14.75 12.2077Z" fill="black"/>
<path d="M6.61885 5.93516C6.96885 5.92891 7.25635 6.2163 7.2501 6.56616C7.24385 6.90353 6.96885 7.17842 6.63135 7.17842C6.28135 7.18467 5.99385 6.89728 6.0001 6.54742C6.00635 6.2163 6.2876 5.94141 6.61885 5.93516Z" fill="black"/>
<path d="M12.6875 6.55992C12.6875 6.90978 12.3937 7.19092 12.0437 7.18467C11.7062 7.17218 11.4375 6.89728 11.4375 6.55992C11.4375 6.21005 11.7313 5.92891 12.0813 5.93516C12.4188 5.94141 12.6875 6.22255 12.6875 6.55992Z" fill="black"/>
<path d="M6.6375 12.6201C6.2875 12.6263 6 12.3389 6 11.9953C6 11.6579 6.275 11.3831 6.6125 11.3768C6.9625 11.3706 7.25 11.6579 7.25 12.0016C7.25 12.3327 6.975 12.6138 6.6375 12.6201Z" fill="black"/>
<path d="M4.53047 6.55991C4.53047 6.90977 4.24297 7.19091 3.89297 7.17842C3.55547 7.16592 3.29297 6.89103 3.29297 6.55366C3.29297 6.2038 3.58047 5.92266 3.93047 5.93515C4.26797 5.94765 4.53047 6.22254 4.53047 6.55991Z" fill="black"/>
<path d="M9.34542 5.93518C9.69542 5.93518 9.97042 6.22257 9.96417 6.57243C9.95792 6.9098 9.68292 7.17844 9.34542 7.17844C8.99542 7.17844 8.72042 6.89106 8.72667 6.54119C8.73917 6.20383 9.00792 5.93518 9.34542 5.93518Z" fill="black"/>
<path d="M6.64531 9.89612C6.29531 9.90236 6.00781 9.62747 6.00781 9.27761C6.00781 8.94024 6.27656 8.66535 6.61406 8.6591C6.96406 8.65285 7.25156 8.92775 7.25156 9.27761C7.25156 9.61498 6.98281 9.88987 6.64531 9.89612Z" fill="black"/>
<path d="M4.53137 12.0203C4.51887 12.3576 4.23762 12.6263 3.90012 12.62C3.55012 12.6138 3.27512 12.3202 3.29387 11.9703C3.30637 11.6329 3.58762 11.3643 3.92512 11.3705C4.26887 11.3768 4.54387 11.6704 4.53137 12.0203Z" fill="black"/>
<path d="M3.89531 8.6591C4.25156 8.65285 4.53281 8.92775 4.53281 9.27761C4.53281 9.62122 4.27031 9.88987 3.92656 9.89612C3.57031 9.90236 3.28906 9.62747 3.28906 9.27761C3.28906 8.93399 3.55781 8.66535 3.89531 8.6591Z" fill="black"/>
<path d="M12.8375 11.558C13 11.5767 13.1125 11.5892 13.225 11.608C13.5375 11.6642 13.75 11.9016 13.75 12.2077C13.7562 12.5264 13.5375 12.795 13.2062 12.82C12.8562 12.8512 12.5 12.845 12.15 12.82C11.8312 12.795 11.625 12.5951 11.6125 12.2765C11.5875 11.8079 11.5875 11.3393 11.6125 10.877C11.6313 10.5271 11.9125 10.3022 12.2375 10.3085C12.55 10.3147 12.8 10.5396 12.8375 10.8708C12.8562 11.0957 12.8375 11.3206 12.8375 11.558Z" fill="black"/>
</g>
<defs>
<clipPath id="clip0_1194_1925">
<rect width="16" height="16" fill="white"/>
</clipPath>
</defs>
</svg>
