<svg width="86" height="62" viewBox="0 0 86 62" fill="none" xmlns="http://www.w3.org/2000/svg">
<g clip-path="url(#clip0_1037_5059)">
<path d="M15.0223 40.1091C11.7624 40.1091 8.73779 40.1091 5.74678 40.1091C4.50332 40.1091 3.29347 40.1091 2.05002 40.1091C1.04181 40.1091 0 39.9679 0.0336069 38.5909C0.0672138 37.2492 1.14263 37.1433 2.11723 37.1433C5.74678 37.1433 9.40993 37.1433 13.0395 37.1433C13.6444 37.1433 14.2493 37.1433 14.9215 37.1433C14.9215 36.1546 14.9215 35.3426 14.9215 34.2833C13.2747 34.2833 11.6616 34.248 10.0821 34.2833C9.07386 34.2833 8.16647 34.0715 8.23369 32.8357C8.26729 31.6353 9.14107 31.3881 10.1493 31.3881C11.6952 31.4234 13.2747 31.3881 14.9215 31.3881C14.9215 30.4348 14.9215 29.6581 14.9215 28.5635C14.3501 28.5635 13.7788 28.5635 13.1739 28.5635C9.40993 28.5635 5.67956 28.5635 1.91559 28.5635C0.907386 28.5635 0.0336069 28.387 0 27.1512C0 25.9155 0.873779 25.7036 1.88199 25.7036C5.24267 25.7389 8.60336 25.7036 11.964 25.7036C12.1321 25.5271 12.2665 25.3505 12.4345 25.174C12.0649 24.9975 11.5944 24.9269 11.2919 24.6444C6.95662 20.7253 5.47792 14.4758 7.52794 8.96786C9.64517 3.28335 14.6862 -0.14148 20.7018 -0.000250414C26.0117 0.14098 31.0191 4.09542 32.6995 9.67401C33.1364 11.1216 33.7749 11.4041 35.052 11.3688C41.1684 11.2982 47.2513 11.3335 53.3677 11.3335C58.5432 11.3335 61.467 14.4405 61.467 19.8779C61.467 21.7492 61.467 23.6205 61.467 25.7389C64.8949 25.7389 68.2556 25.7036 71.5826 25.7389C72.8597 25.7742 74.1704 25.8095 75.4138 26.1273C77.7999 26.6922 79.7155 28.0692 81.127 30.1877C82.6393 32.518 84.118 34.8836 85.5295 37.2492C85.832 37.7435 86 38.4496 86 39.0499C86.0336 43.9223 86 48.83 86.0336 53.7025C86.0336 55.1854 85.4959 55.9269 84.0508 55.8209C83.8156 55.8209 83.6139 55.8562 83.3787 55.8209C81.4295 55.6091 79.9844 55.8209 78.9762 58.2218C77.8335 60.9405 75.2458 62.1057 72.4228 61.9644C69.3982 61.8232 67.0457 60.305 65.8695 57.3038C65.399 56.1034 64.8277 55.7856 63.6514 55.7856C55.5522 55.8209 47.4193 55.8209 39.2192 55.8209C39.0176 56.3152 38.8159 56.7742 38.6143 57.2332C37.2364 60.305 34.8839 61.9644 31.7249 61.9644C28.5658 61.9644 26.1125 60.3403 24.8691 57.2332C24.4322 56.1387 23.9281 55.7503 22.7855 55.7856C19.492 55.8562 16.1649 55.7856 12.8714 55.8209C11.4263 55.8562 10.855 55.1854 10.855 53.7378C10.8214 50.8779 11.7624 48.6182 14.0141 46.9234C14.4846 46.5704 14.9215 45.7583 14.9551 45.1581C15.0895 43.6045 15.0223 42.0157 15.0223 40.1091ZM58.5432 45.7936C58.6104 45.4405 58.7112 45.264 58.7112 45.1228C58.7112 36.4724 58.7448 27.8221 58.7112 19.1717C58.6776 16.1353 56.8292 14.2993 53.8718 14.2993C47.4865 14.264 41.1012 14.2993 34.7159 14.264C33.7077 14.264 33.4725 14.6877 33.2372 15.6763C32.7331 17.6535 32.1618 19.7013 31.2544 21.5373C30.4814 23.0909 29.1036 24.2913 27.9273 25.7742C30.2126 25.7742 32.3634 25.7742 34.5479 25.7742C35.5897 25.7742 36.7995 25.6683 36.7995 27.1512C36.8331 28.7401 35.5225 28.6341 34.447 28.6341C30.0782 28.6341 25.7093 28.6341 21.3404 28.6341C20.1977 28.6341 19.0215 28.6341 17.8789 28.6341C17.8789 29.6934 17.8789 30.5407 17.8789 31.4587C20.8027 31.4587 23.592 31.4587 26.3814 31.4587C27.4232 31.4587 28.5658 31.4587 28.5658 32.977C28.5658 34.4246 27.4568 34.354 26.4822 34.354C23.6256 34.354 20.8027 34.354 17.8453 34.354C17.8453 35.3779 17.8453 36.2253 17.8453 37.2139C18.719 37.2139 19.5592 37.002 20.2313 37.2845C20.8363 37.4963 21.2732 38.2378 21.7773 38.7674C21.2732 39.2264 20.8699 39.9325 20.2986 40.1091C19.5592 40.3562 18.6854 40.1797 17.8789 40.1797C17.8789 42.2275 17.8789 44.0282 17.8789 45.8642C31.4896 45.7936 44.966 45.7936 58.5432 45.7936ZM19.9625 25.174C25.8773 25.2093 30.6159 20.2663 30.6159 14.0168C30.6159 7.90863 25.9109 2.89497 20.1305 2.82435C14.2829 2.78904 9.40993 7.83802 9.37632 13.9462C9.34271 20.1603 14.0813 25.174 19.9625 25.174ZM83.2778 52.961C83.2778 48.3357 83.2778 43.9223 83.2442 39.5442C83.2442 39.0499 82.9754 38.5202 82.7401 38.0966C81.5639 36.1546 80.3877 34.248 79.1778 32.3414C77.9007 30.3289 76.1196 28.9872 73.8679 28.7401C71.8851 28.4929 69.8351 28.6341 67.8523 28.5988C65.7687 28.5988 63.6514 28.5988 61.6014 28.5988C61.6014 36.8608 61.6014 44.8756 61.6014 52.8904C62.8449 52.8904 63.9539 52.8904 65.0629 52.8904C65.1637 52.6786 65.2646 52.5373 65.2982 52.3608C66.676 48.2651 69.0285 46.2173 72.49 46.1467C76.1196 46.0761 78.3712 47.8767 80.018 52.1136C80.1524 52.4667 80.6901 52.8198 81.0598 52.8904C81.6983 53.0669 82.3705 52.961 83.2778 52.961ZM37.5389 48.7947C38.0094 49.748 38.6143 50.5601 38.7487 51.4075C39.0176 52.8904 39.7905 53.0316 40.9668 52.9963C44.9996 52.9257 48.9988 52.961 53.0317 52.961C54.8464 52.961 56.6948 52.961 58.5768 52.961C58.5768 51.4428 58.5768 50.1364 58.5768 48.7594C51.553 48.7947 44.6299 48.7947 37.5389 48.7947ZM31.6577 49.0772C29.0363 49.1125 26.8519 51.4075 26.8855 54.1262C26.9191 56.8802 29.1036 59.1045 31.7585 59.1045C34.3798 59.0692 36.5643 56.7742 36.5307 54.0556C36.4971 51.2663 34.3126 49.0419 31.6577 49.0772ZM72.6245 59.0692C75.2794 59.1045 77.4639 56.8448 77.4975 54.0909C77.5311 51.3369 75.3466 49.0419 72.7253 49.0419C70.0703 49.0419 67.8859 51.2663 67.8523 54.0202C67.8187 56.7742 69.9695 59.0692 72.6245 59.0692ZM25.9781 48.7241C22.8863 48.7241 20.0297 48.6182 17.2067 48.7594C15.0895 48.8654 13.678 50.8073 13.9469 52.961C16.3329 52.961 18.719 52.8904 21.1387 52.9963C23.0207 53.0669 24.6674 53.1023 25.0035 50.5601C25.0371 50.0305 25.5076 49.5362 25.9781 48.7241Z" fill="#787878"/>
<path d="M21.8105 11.4043C22.7515 14.6173 20.231 16.7358 18.4835 19.172C18.2146 19.5604 17.24 19.4191 16.6015 19.525C16.5343 18.8542 16.131 17.8656 16.4334 17.5478C18.9203 14.8292 19.4917 11.6162 19.1892 8.0148C19.1556 7.52049 19.9958 6.92027 20.4663 6.35535C20.9368 6.88496 21.6425 7.37926 21.7769 8.0148C21.9786 8.9681 21.8105 9.99202 21.8105 11.4043Z" fill="#787878"/>
<path d="M68.1879 36.4727C68.1879 34.9897 68.2215 33.5421 68.1879 32.0592C68.1543 30.6822 68.7256 30.082 70.0699 29.9761C73.9347 29.623 76.8249 31 78.5052 34.8485C79.1438 36.2961 80.0175 37.6025 80.7233 39.0148C81.7315 41.0626 80.7905 42.8986 78.6397 42.9692C75.7495 43.0752 72.8257 43.0045 69.9019 42.9692C68.7592 42.9692 68.1879 42.2631 68.1879 41.0273C68.1879 39.5444 68.1879 38.0262 68.1879 36.4727ZM71.0445 33.0125C71.0445 35.3781 71.0445 37.6378 71.0445 39.9681C73.3634 39.9681 75.5814 39.9681 77.8331 39.9681C75.2454 34.1777 74.4724 32.5535 71.0445 33.0125Z" fill="#787878"/>
<path d="M31.624 51.7608C32.8674 51.7255 33.8757 52.6788 33.9093 53.9852C33.9429 55.2563 32.9683 56.3861 31.792 56.4214C30.6158 56.492 29.574 55.4328 29.5068 54.1617C29.4732 52.8554 30.3805 51.7961 31.624 51.7608Z" fill="#787878"/>
<path d="M74.8761 54.1264C74.8425 55.3622 73.8007 56.492 72.6245 56.4567C71.4146 56.4567 70.4736 55.3622 70.4736 54.0558C70.4736 52.7494 71.4482 51.7255 72.6917 51.7608C73.9351 51.7608 74.9097 52.8201 74.8761 54.1264Z" fill="#787878"/>
</g>
<defs>
<clipPath id="clip0_1037_5059">
<rect width="86" height="62" fill="white"/>
</clipPath>
</defs>
</svg>
