<svg width="86" height="62" viewBox="0 0 86 62" fill="none" xmlns="http://www.w3.org/2000/svg">
<g clip-path="url(#clip0_1037_1466)">
<path d="M57.3561 15.7788C61.8559 15.7788 66.1542 15.8463 70.4525 15.745C71.8629 15.7112 72.7024 16.218 73.4412 17.4006C77.3366 23.5837 81.2991 29.6992 85.1944 35.8823C85.631 36.558 85.8996 37.4365 85.8996 38.2136C85.9668 43.0115 85.8996 47.7755 85.9668 52.5733C86.0004 54.1951 85.3288 54.8033 83.7841 54.7695C81.6685 54.7019 79.5529 54.7695 77.8739 54.7695C76.5978 56.6616 75.7583 58.5199 74.3815 59.8038C69.8145 64.0273 62.7626 62.0338 60.6134 56.0872C60.3112 55.2763 60.1097 54.7695 59.0687 54.7695C49.0953 54.8033 39.1554 54.8033 29.1819 54.8033C29.014 54.8033 28.8461 54.8371 28.6111 54.9046C28.4432 55.3439 28.3088 55.8169 28.1409 56.2899C26.8649 59.7362 23.574 62.0676 20.0144 62.0676C16.4885 62.0676 13.1976 59.8376 12.0558 56.4251C11.6193 55.1074 10.9812 54.7357 9.6716 54.8033C7.11947 54.9046 4.53376 54.8033 1.94805 54.8371C0.537668 54.8371 -0.0332031 54.2289 -0.0332031 52.776C0.0339581 37.7068 0.0339581 22.739 0.000377506 7.77112C0.000377506 6.2169 0.739151 5.6763 2.14954 5.6763C19.813 5.6763 37.5099 5.6763 55.1734 5.6763C56.7516 5.6763 57.3897 6.38584 57.3561 7.94006C57.3561 10.4741 57.3561 13.0082 57.3561 15.7788ZM3.02263 8.71717C3.02263 21.2185 3.02263 33.5847 3.02263 46.1199C5.37328 46.1199 7.65676 46.1199 9.94024 46.1199C9.94024 47.1673 9.94024 48.012 9.94024 48.9918C7.5896 48.9918 5.37328 48.9918 3.02263 48.9918C3.02263 50.0055 3.02263 50.8501 3.02263 51.8638C5.3397 51.8638 7.5896 51.7962 9.80592 51.8976C11.0484 51.9651 11.6193 51.5935 12.0558 50.3433C13.2311 46.7956 16.4549 44.6332 20.1488 44.667C23.809 44.7008 26.9656 46.9646 28.2081 50.4447C28.376 50.9177 28.5439 51.357 28.6782 51.7624C37.2749 51.7624 45.7708 51.7624 54.3003 51.7624C54.3003 50.8164 54.3003 49.9379 54.3003 48.8905C46.2409 48.8905 38.2487 48.8905 30.1894 48.8905C30.1894 47.9106 30.1894 47.0997 30.1894 46.0523C38.2823 46.0523 46.2745 46.0523 54.3003 46.0523C54.3003 35.3755 54.3003 24.9352 54.3003 14.3259C38.0808 14.3259 21.9285 14.3259 5.84341 14.3259C5.84341 13.2785 5.84341 12.4 5.84341 11.3526C22.0964 11.3526 38.2151 11.3526 54.2667 11.3526C54.2667 10.3052 54.2667 9.52807 54.2667 8.68338C37.1741 8.71717 20.1823 8.71717 3.02263 8.71717ZM77.6724 51.7286C79.3514 51.7286 81.1648 51.7286 82.9445 51.7286C82.9445 50.7488 82.9445 49.9379 82.9445 48.8905C81.5341 48.8905 80.2245 48.8905 78.9484 48.8905C78.9484 47.8431 78.9484 47.0322 78.9484 46.0523C80.3252 46.0523 81.6013 46.0523 83.0789 46.0523C83.0789 43.721 83.0117 41.5248 83.1124 39.3624C83.1796 37.8758 82.8102 37.3014 81.1648 37.3352C75.0531 37.4365 68.975 37.3689 62.8633 37.3689C60.3448 37.3689 60.1433 37.1662 60.1433 34.7335C60.1433 31.1858 60.1433 27.6382 60.1433 24.0905C60.1433 21.9281 60.5463 21.5226 62.6618 21.4888C65.8856 21.4888 69.1093 21.4888 72.4338 21.4888C71.7622 19.5292 70.7883 18.4817 68.6392 18.6507C66.0871 18.8872 63.5014 18.7183 60.9156 18.7183C59.7739 18.7183 58.6322 18.7183 57.4904 18.7183C57.4904 29.9019 57.4904 40.7815 57.4904 51.6948C59.1694 52.1003 60.1769 51.9651 60.9156 49.9717C63.0648 44.194 70.654 42.7411 74.8516 47.2349C75.9933 48.485 76.6985 50.1406 77.6724 51.7286ZM63.1656 34.4632C69.1093 34.4632 74.8516 34.4632 80.9297 34.4632C78.8141 31.152 76.8329 28.0436 74.8516 24.9689C74.6837 24.7324 74.3143 24.5297 74.0457 24.5297C70.4525 24.4959 66.8258 24.4959 63.1656 24.4959C63.1656 27.9422 63.1656 31.1183 63.1656 34.4632ZM14.4065 53.2828C14.4065 56.4926 16.8243 58.9591 19.9809 58.9929C23.171 59.0267 25.7903 56.4251 25.7903 53.2828C25.7903 50.2082 23.2046 47.5728 20.1152 47.5052C16.9586 47.4714 14.4065 50.0392 14.4065 53.2828ZM63.0984 53.2828C63.0984 56.5264 65.5834 59.0267 68.8071 59.0267C71.9637 59.0267 74.5494 56.3913 74.5158 53.2491C74.4822 50.1744 71.8629 47.5728 68.8407 47.539C65.6841 47.5052 63.132 50.073 63.0984 53.2828Z" fill="#787878"/>
<path d="M25.7561 0.033783C25.7561 0.946045 25.7561 1.75694 25.7561 2.73678C19.1743 2.73678 12.5589 2.73678 5.84277 2.73678C5.84277 1.89209 5.84277 1.01362 5.84277 0.033783C12.4582 0.033783 19.0735 0.033783 25.7561 0.033783Z" fill="#787878"/>
<path d="M2.75406 2.80436C1.88096 2.80436 1.07502 2.80436 0.134766 2.80436C0.134766 1.8921 0.134766 1.01362 0.134766 0C0.974281 0 1.8138 0 2.75406 0C2.75406 0.912262 2.75406 1.82452 2.75406 2.80436Z" fill="#787878"/>
<path d="M21.4247 51.9651C21.4247 52.9112 21.4247 53.7221 21.4247 54.6343C20.5181 54.6343 19.7121 54.6343 18.7383 54.6343C18.7383 53.7559 18.7383 52.8774 18.7383 51.9651C19.6114 51.9651 20.4509 51.9651 21.4247 51.9651Z" fill="#787878"/>
<path d="M67.4639 51.9313C68.3705 51.9313 69.2101 51.9313 70.1167 51.9313C70.1167 52.8098 70.1167 53.6207 70.1167 54.5668C69.2772 54.5668 68.4377 54.5668 67.4639 54.5668C67.4639 53.7221 67.4639 52.8436 67.4639 51.9313Z" fill="#787878"/>
</g>
<defs>
<clipPath id="clip0_1037_1466">
<rect width="86" height="62" fill="white"/>
</clipPath>
</defs>
</svg>
