<svg width="86" height="62" viewBox="0 0 86 62" fill="none" xmlns="http://www.w3.org/2000/svg">
<g clip-path="url(#clip0_1037_5046)">
<path d="M22.7858 44.9075C22.7858 40.6127 22.7858 36.4909 22.7858 32.2538C18.8538 32.2538 14.989 32.2538 11.1578 32.2538C10.6537 32.2538 10.0824 32.398 9.6791 32.225C9.07418 31.9944 8.2004 31.5909 8.09958 31.1585C7.86433 30.265 8.7045 29.9479 9.6791 29.9479C13.7119 29.9479 17.7448 29.9479 21.7776 29.9479C22.1136 29.9479 22.4161 29.8903 22.8194 29.8615C22.8194 25.682 22.8194 21.5602 22.8194 17.2943C22.1473 17.2943 21.5423 17.2943 20.971 17.2943C14.6865 17.2943 8.43565 17.2943 2.15116 17.2943C1.17656 17.2943 0.0675339 17.3231 0.033927 16.199C0.000320159 14.9884 1.14295 14.9595 2.18477 14.9595C9.00696 14.9595 15.8292 14.9595 22.685 14.9307C23.3907 14.9307 24.1637 14.8443 24.7686 14.556C32.5654 10.7225 40.3622 6.86006 48.159 2.99767C48.3942 2.88237 48.5623 2.73826 49.2344 2.33472C47.218 2.33472 45.7057 2.33472 44.1598 2.33472C41.9753 2.33472 39.7909 2.39237 37.6064 2.27708C37.0687 2.24825 36.5646 1.61413 36.0605 1.26824C36.5646 0.835885 37.0687 0.432351 37.6064 0.0288182C37.7072 -0.0576532 37.9425 -5.6345e-06 38.1105 -5.6345e-06C43.3196 -5.6345e-06 48.5287 -0.0288294 53.7377 0.0288182C54.4771 0.0288182 55.2836 0.259409 55.9222 0.57647C65.4665 5.27475 75.0109 10.0019 84.5552 14.7001C85.6643 15.2478 86.0675 15.9107 86.0675 17.006C86.0339 26.3738 86.0339 35.7415 86.0675 45.1092C86.0675 46.2622 85.6643 46.954 84.488 47.5304C74.9773 52.1999 65.5001 56.8982 56.023 61.6253C54.8804 62.2018 54.0402 62.1153 52.9312 61.5965C43.7901 57.0423 34.649 52.4881 25.4743 48.0205C24.5333 47.5593 23.2899 47.2999 22.1809 47.271C15.6275 47.2134 9.07418 47.2422 2.52084 47.2422C2.01673 47.2422 1.41181 47.3575 1.04213 47.1557C0.605244 46.9252 0.0675339 46.4063 0.0675339 46.0316C0.101141 45.6569 0.706065 45.2245 1.17656 44.994C1.51263 44.821 2.05034 44.9363 2.48723 44.9363C8.60368 44.9363 14.6865 44.9363 20.803 44.9363C21.3743 44.9075 22.0128 44.9075 22.7858 44.9075ZM53.0656 58.9447C53.0656 58.2241 53.0656 57.8205 53.0656 57.3882C53.0656 49.2599 53.032 41.1604 53.0992 33.0321C53.0992 32.0232 52.7295 31.5044 51.7213 31.0144C43.5548 27.0367 35.4556 22.9726 27.3227 18.9661C26.8522 18.7355 26.3817 18.5625 25.6088 18.2166C25.6088 18.9661 25.6088 19.4849 25.6088 20.0037C25.6088 26.6908 25.6088 33.3491 25.6088 40.0363C25.6088 41.7657 25.0038 43.8122 25.8776 45.1092C26.785 46.464 29.1711 47.0981 30.9523 47.9916C38.2113 51.5946 45.4704 55.1976 53.0656 58.9447ZM55.7877 58.887C56.3255 58.6853 56.5943 58.5988 56.8296 58.4835C65.3657 54.2752 73.8682 50.0381 82.4044 45.8587C83.2782 45.4263 83.3118 44.9075 83.3118 44.2157C83.3118 35.9721 83.3118 27.6997 83.3118 19.4561C83.3118 19.1102 83.2446 18.7643 83.1774 18.2743C80.6904 19.5137 78.338 20.609 76.0527 21.8484C75.6158 22.079 75.3133 22.7708 75.2797 23.232C75.2125 26.345 75.2125 29.4867 75.2797 32.5997C75.3133 33.6086 74.8765 34.185 73.8682 34.6462C71.4822 35.7703 69.1297 36.9809 66.7436 38.1627C64.6264 39.2004 63.8198 38.768 63.8198 36.6639C63.8198 33.8103 63.8198 30.9568 63.8198 27.8726C61.4001 29.0544 59.2493 30.1497 57.0648 31.1585C56.1238 31.5909 55.7541 32.1097 55.7541 33.0609C55.8214 40.0363 55.7877 46.9828 55.7877 53.9582C55.7877 55.4858 55.7877 57.0711 55.7877 58.887ZM46.5459 6.48535C46.7811 6.68712 46.8483 6.83124 46.9827 6.88888C55.7205 11.1836 64.4583 15.4784 73.1961 19.7443C73.4986 19.8884 74.0027 20.0325 74.2379 19.9172C76.7248 18.7355 79.2117 17.496 81.9339 16.1413C72.7592 11.616 63.9206 7.20595 55.0484 2.85355C54.7795 2.70943 54.2754 2.70943 54.0066 2.82473C51.5197 4.0065 49.0664 5.24593 46.5459 6.48535ZM26.9866 16.1701C36.0941 20.6667 44.9327 25.0479 53.8049 29.4291C54.1074 29.5732 54.7123 29.602 55.0148 29.4579C57.4345 28.305 59.8542 27.0944 62.4419 25.7973C53.3008 21.3296 44.395 16.9484 35.4556 12.596C35.1531 12.4519 34.5482 12.4519 34.2457 12.596C31.9269 13.6913 29.608 14.8731 26.9866 16.1701ZM37.9089 10.8666C38.0097 11.0107 38.0433 11.126 38.1105 11.1548C46.8819 15.4784 55.6533 19.8019 64.4583 24.0679C64.7944 24.2408 65.4665 24.2696 65.8026 24.0967C67.5838 23.2896 69.2977 22.3961 71.1461 21.4737C70.5076 21.1567 70.0371 20.8973 69.5666 20.6667C62.6435 17.2655 55.6869 13.8354 48.7639 10.463C47.0163 9.62715 45.2016 8.18596 43.4876 8.2436C41.6729 8.30125 39.8917 9.82891 38.1105 10.6936C38.0433 10.7224 38.0097 10.7513 37.9089 10.8666ZM72.5576 23.4914C70.5748 24.4714 68.8608 25.2785 67.2141 26.1432C66.878 26.3161 66.5419 26.7197 66.5419 27.0079C66.4747 29.775 66.5083 32.5132 66.5083 35.5397C68.4911 34.5597 70.2387 33.7238 71.919 32.8303C72.2215 32.6574 72.524 32.225 72.524 31.9368C72.5576 29.2273 72.5576 26.4891 72.5576 23.4914Z" fill="#787878"/>
<path d="M18.2486 2.33471C15.4592 2.33471 12.6699 2.33471 9.8805 2.33471C8.93951 2.33471 7.99852 2.24824 8.03212 1.18176C8.06573 0.144104 9.00672 0.0288086 9.94772 0.0288086C15.5265 0.0288086 21.1052 0.0288086 26.6839 0.0288086C27.6585 0.0288086 28.5659 0.201752 28.5323 1.23941C28.5323 2.33471 27.5577 2.36354 26.6167 2.36354C23.8274 2.33471 21.038 2.33471 18.2486 2.33471Z" fill="#787878"/>
<path d="M29.4734 24.1255C29.8767 24.2697 30.2799 24.4138 30.6832 24.5867C34.7833 26.6044 38.9169 28.6509 43.0169 30.6974C43.8235 31.1009 44.6637 31.5333 44.0924 32.4844C43.4874 33.4933 42.5464 33.1762 41.6727 32.715C37.5054 30.6397 33.3382 28.622 29.2381 26.4891C28.734 26.2297 28.3643 25.5379 28.2971 25.0191C28.2299 24.6444 28.734 24.1832 28.9693 23.7508C29.1373 23.8949 29.3053 24.0102 29.4734 24.1255Z" fill="#787878"/>
<path d="M37.5393 33.7815C37.5729 34.7327 36.5647 35.3956 35.691 34.9921C33.3385 33.9256 31.0196 32.7727 28.7679 31.5333C28.3983 31.3315 28.2638 30.4956 28.4319 30.0632C28.5663 29.775 29.5745 29.4579 29.9106 29.6309C32.3303 30.7262 34.6491 31.908 37.0016 33.0897C37.3041 33.2339 37.4385 33.6086 37.5393 33.7815Z" fill="#787878"/>
</g>
<defs>
<clipPath id="clip0_1037_5046">
<rect width="86" height="62" fill="white"/>
</clipPath>
</defs>
</svg>
