<svg width="86" height="62" viewBox="0 0 86 62" fill="none" xmlns="http://www.w3.org/2000/svg">
<g clip-path="url(#clip0_1037_5028)">
<path d="M42.8987 62C31.1592 62 19.4198 62 7.68029 62C4.59448 62 4.39324 61.8789 4.39324 59.5781C4.39324 49.4789 4.39324 39.4039 4.42678 29.3047C4.42678 28.5781 4.25907 28.0453 3.31991 27.6094C-0.201927 26.0109 -0.805672 21.2641 0.938478 19.0844C4.05782 15.1125 7.11009 11.1406 10.0282 7.12031C10.6655 6.24844 11.0009 5.15859 11.068 4.16563C11.2357 1.42891 13.114 0 16.9377 0C34.3121 0 51.6865 0 69.0945 0C72.9182 0 74.7965 1.40469 74.9307 4.16563C74.9978 5.15859 75.3332 6.24844 75.9705 7.12031C78.9221 11.1406 81.9408 15.1367 85.0937 19.0844C86.8379 21.2883 86.2006 26.0109 82.6787 27.6094C81.7396 28.0453 81.5719 28.5781 81.5719 29.3047C81.6054 39.4281 81.6054 49.5516 81.5719 59.6992C81.5719 61.8063 81.3371 62 78.4525 62C66.6124 62 54.7723 62 42.8987 62ZM69.933 26.6164C68.1553 28.118 65.9751 29.0141 63.2583 29.0625C60.4408 29.1109 58.2606 28.1422 56.4159 26.7617C51.9549 29.8375 48.1311 29.8375 42.9322 26.7859C41.1545 28.1422 39.0414 29.0141 36.3581 29.0383C33.6077 29.0625 31.4611 28.1422 29.6499 26.7617C25.256 29.8375 20.2583 29.8133 15.9985 26.6406C13.8519 28.3359 11.1686 29.1352 7.88154 29.0383C7.88154 39.2102 7.88154 49.3094 7.88154 59.457C10.0953 59.457 12.2419 59.457 14.4892 59.457C14.4892 58.9484 14.4892 58.5125 14.4892 58.0766C14.4892 50.6898 14.4892 43.3031 14.4892 35.9164C14.4892 34.1484 14.8917 33.8578 17.2731 33.8578C23.2435 33.8578 29.2474 33.8578 35.2177 33.8578C37.5992 33.8578 37.9681 34.1484 37.9681 35.9164C37.9681 43.3516 37.9681 50.7625 37.9681 58.1977C37.9681 58.6336 37.9681 59.0453 37.9681 59.4813C51.4853 59.4813 64.7677 59.4813 78.1171 59.4813C78.1171 49.3094 78.1171 39.2102 78.1171 29.0383C74.8636 29.1594 72.1468 28.3844 69.933 26.6164ZM34.4798 46.6938C34.4798 43.2062 34.4798 39.7914 34.4798 36.425C28.8784 36.425 23.3776 36.425 17.9104 36.425C17.9104 39.8883 17.9104 43.2547 17.9104 46.6938C23.4783 46.6938 28.912 46.6938 34.4798 46.6938ZM17.9775 49.2125C17.9775 52.7 17.9775 56.1148 17.9775 59.4813C23.5789 59.4813 29.0797 59.4813 34.5469 59.4813C34.5469 56.018 34.5469 52.6516 34.5469 49.2125C28.979 49.2125 23.5453 49.2125 17.9775 49.2125ZM71.4424 4.79531C71.6101 2.73672 71.2076 2.42188 68.4907 2.42188C51.4517 2.42188 34.3792 2.42188 17.3402 2.42188C14.7575 2.42188 14.2208 2.88203 14.6904 4.79531C33.5742 4.79531 52.4244 4.79531 71.4424 4.79531ZM4.59448 19.375C7.84799 19.375 10.7325 19.3508 13.6506 19.3992C14.6569 19.4234 15.0929 19.157 15.3948 18.4789C16.9377 15.0398 18.5477 11.625 20.1241 8.18594C20.2583 7.91953 20.2918 7.60469 20.3925 7.26562C19.8558 7.26562 19.4533 7.31406 19.0843 7.26562C15.16 6.70859 12.8457 7.82266 11.2357 10.5352C9.42444 13.5141 6.94238 16.2992 4.59448 19.375ZM65.5056 7.33828C67.2833 11.1891 69.0274 14.9914 70.8386 18.7937C70.9393 19.0359 71.4088 19.3266 71.7107 19.3266C74.8636 19.375 77.9829 19.3508 81.1694 19.3508C81.1358 19.1328 81.1694 19.0359 81.1358 18.9875C79.0898 16.2992 77.0773 13.6352 75.0313 10.9711C74.0921 9.73594 73.4549 8.04062 72.0126 7.45937C70.4697 6.82969 68.1218 7.28984 66.1093 7.26562C65.9416 7.26562 65.841 7.31406 65.5056 7.33828ZM41.1881 19.3266C41.1881 15.2578 41.1881 11.2859 41.1881 7.31406C38.8737 7.31406 36.66 7.31406 34.3457 7.31406C33.4065 11.3344 32.5009 15.3063 31.5617 19.3266C34.8823 19.3266 38.0017 19.3266 41.1881 19.3266ZM54.4034 19.3266C53.4642 15.282 52.5586 11.3102 51.6194 7.33828C49.238 7.33828 47.0243 7.33828 44.7435 7.33828C44.7435 11.3586 44.7435 15.3063 44.7435 19.3266C47.997 19.3266 51.1499 19.3266 54.4034 19.3266ZM30.958 7.26562C29.717 7.26562 28.7107 7.26562 27.738 7.26562C24.1155 7.26562 24.1155 7.26562 22.9751 9.6875C21.4993 12.8844 20.057 16.0813 18.5477 19.3266C21.8347 19.3266 24.9205 19.3266 28.1405 19.3266C29.0797 15.3305 29.9853 11.3586 30.958 7.26562ZM57.8246 19.2781C61.0446 19.2781 64.1974 19.2781 67.451 19.2781C65.6397 15.4031 63.9291 11.625 62.1179 7.87109C61.9837 7.60469 61.4806 7.28984 61.1116 7.28984C59.1327 7.24141 57.1202 7.26562 55.0071 7.26562C55.9798 11.3586 56.919 15.3062 57.8246 19.2781ZM3.52116 21.8453C3.15221 23.7828 3.99074 25.2117 6.27155 26.1078C8.38466 26.9313 10.4642 26.8102 12.3761 25.7688C14.2208 24.8 14.7911 23.468 14.3886 21.8453C10.7326 21.8453 7.17717 21.8453 3.52116 21.8453ZM71.6101 21.8453C71.2411 23.7102 72.0461 25.0906 74.1592 26.0352C76.2388 26.9312 78.3184 26.8344 80.2973 25.8656C82.2427 24.9211 82.88 23.5406 82.4775 21.8453C78.855 21.8453 75.2996 21.8453 71.6101 21.8453ZM17.9104 21.8453C17.6421 23.7344 18.2123 25.2602 20.5266 26.1805C22.4385 26.9312 24.3168 26.7859 25.9939 25.8172C27.7716 24.8 28.174 23.4195 27.7716 21.8453C24.451 21.8453 21.231 21.8453 17.9104 21.8453ZM41.2216 21.8695C37.834 21.8695 34.5804 21.8695 31.3605 21.8695C31.0251 24.7273 33.0375 26.6164 36.291 26.6164C39.5446 26.6406 41.5235 24.7516 41.2216 21.8695ZM54.6046 21.8938C51.2169 21.8938 47.9634 21.8938 44.7435 21.8938C44.1397 25.0906 47.1249 26.6406 49.7411 26.6406C52.9946 26.6164 55.0071 24.6547 54.6046 21.8938ZM68.0882 21.8938C64.8012 21.8938 61.5141 21.8938 58.2271 21.8938C57.8246 24.6789 59.8371 26.6164 63.0906 26.6406C65.6733 26.6406 68.6584 25.0906 68.0882 21.8938Z" fill="#787878"/>
<path d="M71.5098 46.6938C72.2477 46.718 72.9186 46.5969 73.3211 46.7906C73.9248 47.0813 74.6627 47.5656 74.7298 48.0258C74.7633 48.3649 73.8913 48.8008 73.3211 49.1399C73.1198 49.2609 72.6838 49.1641 72.3484 49.1641C63.963 49.1641 55.6112 49.1641 47.2259 49.1641C46.9576 49.1641 46.5551 49.2367 46.4209 49.1399C45.8171 48.7524 44.9451 48.3649 44.8109 47.9047C44.7438 47.5899 45.7165 47.057 46.3538 46.7906C46.7228 46.6211 47.3265 46.7664 48.0309 46.7664C48.0309 46.282 48.0309 45.8461 48.0309 45.4102C48.0309 42.1891 48.0309 38.968 48.0309 35.7469C48.0309 34.2938 48.534 33.9305 50.4459 33.9305C56.651 33.9305 62.8226 33.9305 69.0278 33.9305C70.9732 33.9305 71.4763 34.2938 71.4763 35.7227C71.5098 39.3313 71.5098 42.9399 71.5098 46.6938ZM68.0551 36.4008C62.4872 36.4008 56.9864 36.4008 51.4856 36.4008C51.4856 39.8641 51.4856 43.2547 51.4856 46.6453C57.087 46.6453 62.5878 46.6453 68.0551 46.6453C68.0551 43.182 68.0551 39.8156 68.0551 36.4008Z" fill="#787878"/>
<path d="M56.5844 51.5859C58.5969 51.5859 60.6094 51.5859 62.6218 51.5859C63.8629 51.5859 64.802 51.9008 64.7349 52.8695C64.7014 53.7656 63.7623 54.032 62.5883 54.032C58.4627 54.0078 54.3371 54.032 50.178 54.032C48.937 54.032 47.9978 53.7172 48.0649 52.7484C48.0984 51.8523 49.0376 51.5859 50.2115 51.5859C52.3247 51.5859 54.4713 51.5859 56.5844 51.5859Z" fill="#787878"/>
<path d="M71.7452 53.0148C71.1079 53.3297 70.4371 53.9109 69.7998 53.9109C69.2296 53.8867 68.6929 53.2086 68.1562 52.8453C68.7265 52.4336 69.196 51.7797 69.8669 51.6828C70.37 51.6102 71.1079 52.2156 71.7116 52.5305C71.7452 52.6758 71.7452 52.8453 71.7452 53.0148Z" fill="#787878"/>
</g>
<defs>
<clipPath id="clip0_1037_5028">
<rect width="86" height="62" fill="white"/>
</clipPath>
</defs>
</svg>
