<svg width="56" height="41" viewBox="0 0 56 41" fill="none" xmlns="http://www.w3.org/2000/svg">
<g clip-path="url(#clip0_1037_1494)">
<path d="M37.3483 10.6799C40.2784 10.6799 43.0773 10.7234 45.8762 10.6581C46.7946 10.6363 47.3413 10.9632 47.8223 11.7262C50.3588 15.7153 52.9391 19.6608 55.4756 23.6499C55.7598 24.0858 55.9348 24.6526 55.9348 25.154C55.9785 28.2493 55.9348 31.3229 55.9785 34.4183C56.0004 35.4646 55.563 35.857 54.5572 35.8352C53.1796 35.7916 51.802 35.8352 50.7087 35.8352C49.8778 37.0559 49.3311 38.2548 48.4346 39.0831C45.4607 41.8079 40.8688 40.5218 39.4693 36.6853C39.2725 36.1621 39.1413 35.8352 38.4635 35.8352C31.9691 35.857 25.4967 35.857 19.0023 35.857C18.893 35.857 18.7837 35.8788 18.6306 35.9224C18.5213 36.2057 18.4338 36.5109 18.3245 36.8161C17.4935 39.0395 15.3506 40.5436 13.0328 40.5436C10.7368 40.5436 8.5939 39.1049 7.85044 36.9033C7.56618 36.0531 7.15071 35.8134 6.29792 35.857C4.63607 35.9224 2.95235 35.857 1.26864 35.8788C0.350245 35.8788 -0.0214844 35.4864 -0.0214844 34.5491C0.0222485 24.827 0.0222485 15.1703 0.000382083 5.51364C0.000382083 4.51091 0.481444 4.16214 1.39984 4.16214C12.9016 4.16214 24.4252 4.16214 35.927 4.16214C36.9547 4.16214 37.3702 4.61991 37.3483 5.62263C37.3483 7.25751 37.3483 8.89239 37.3483 10.6799ZM1.96836 6.12399C1.96836 14.1894 1.96836 22.1676 1.96836 30.2548C3.49902 30.2548 4.98593 30.2548 6.47285 30.2548C6.47285 30.9305 6.47285 31.4755 6.47285 32.1076C4.9422 32.1076 3.49902 32.1076 1.96836 32.1076C1.96836 32.7616 1.96836 33.3066 1.96836 33.9605C3.47715 33.9605 4.9422 33.9169 6.38539 33.9823C7.19445 34.0259 7.56618 33.7861 7.85044 32.9796C8.61577 30.6908 10.7149 29.2957 13.1203 29.3175C15.5037 29.3393 17.5591 30.7997 18.3682 33.045C18.4775 33.3502 18.5869 33.6335 18.6743 33.8951C24.2722 33.8951 29.8044 33.8951 35.3584 33.8951C35.3584 33.2848 35.3584 32.718 35.3584 32.0422C30.1105 32.0422 24.9063 32.0422 19.6583 32.0422C19.6583 31.4101 19.6583 30.8869 19.6583 30.2112C24.9281 30.2112 30.1324 30.2112 35.3584 30.2112C35.3584 23.3229 35.3584 16.5872 35.3584 9.74252C24.7969 9.74252 14.2792 9.74252 3.80515 9.74252C3.80515 9.06677 3.80515 8.50001 3.80515 7.82427C14.3885 7.82427 24.8844 7.82427 35.3366 7.82427C35.3366 7.14852 35.3366 6.64715 35.3366 6.10219C24.2066 6.12399 13.1421 6.12399 1.96836 6.12399ZM50.5775 33.8733C51.6708 33.8733 52.8516 33.8733 54.0105 33.8733C54.0105 33.2412 54.0105 32.718 54.0105 32.0422C53.0921 32.0422 52.2393 32.0422 51.4084 32.0422C51.4084 31.3665 51.4084 30.8433 51.4084 30.2112C52.305 30.2112 53.1359 30.2112 54.098 30.2112C54.098 28.7071 54.0543 27.2902 54.1199 25.8951C54.1636 24.936 53.9231 24.5654 52.8516 24.5872C48.8719 24.6526 44.9141 24.609 40.9344 24.609C39.2944 24.609 39.1632 24.4782 39.1632 22.9087C39.1632 20.6199 39.1632 18.3311 39.1632 16.0422C39.1632 14.6472 39.4256 14.3856 40.8032 14.3638C42.9024 14.3638 45.0016 14.3638 47.1663 14.3638C46.729 13.0995 46.0949 12.4237 44.6954 12.5327C43.0336 12.6853 41.3499 12.5763 39.6661 12.5763C38.9227 12.5763 38.1792 12.5763 37.4358 12.5763C37.4358 19.7916 37.4358 26.8106 37.4358 33.8515C38.5291 34.1131 39.1851 34.0259 39.6661 32.7398C41.0656 29.0123 46.0074 28.0749 48.7407 30.9741C49.4842 31.7807 49.9434 32.8488 50.5775 33.8733ZM41.1312 22.7343C45.0016 22.7343 48.7407 22.7343 52.6985 22.7343C51.321 20.5981 50.0308 18.5927 48.7407 16.609C48.6314 16.4564 48.3909 16.3256 48.2159 16.3256C45.8762 16.3038 43.5146 16.3038 41.1312 16.3038C41.1312 18.5273 41.1312 20.5763 41.1312 22.7343ZM9.38109 34.876C9.38109 36.9469 10.9555 38.5382 13.0109 38.56C15.0882 38.5818 16.7938 36.9033 16.7938 34.876C16.7938 32.8924 15.1101 31.1921 13.0984 31.1485C11.0429 31.1267 9.38109 32.7834 9.38109 34.876ZM41.0875 34.876C41.0875 36.9687 42.7056 38.5818 44.8048 38.5818C46.8602 38.5818 48.5439 36.8815 48.522 34.8542C48.5002 32.8706 46.7946 31.1921 44.8266 31.1703C42.7712 31.1485 41.1093 32.8052 41.0875 34.876Z" fill="#787878"/>
<path d="M16.7715 0.52179C16.7715 1.11035 16.7715 1.63351 16.7715 2.26566C12.4857 2.26566 8.17798 2.26566 3.80469 2.26566C3.80469 1.7207 3.80469 1.15394 3.80469 0.52179C8.11238 0.52179 12.4201 0.52179 16.7715 0.52179Z" fill="#787878"/>
<path d="M1.79347 2.30926C1.22495 2.30926 0.700151 2.30926 0.0878906 2.30926C0.0878906 1.72071 0.0878906 1.15395 0.0878906 0.5C0.634552 0.5 1.18121 0.5 1.79347 0.5C1.79347 1.08856 1.79347 1.67711 1.79347 2.30926Z" fill="#787878"/>
<path d="M13.9505 34.0259C13.9505 34.6362 13.9505 35.1594 13.9505 35.7479C13.3601 35.7479 12.8353 35.7479 12.2012 35.7479C12.2012 35.1812 12.2012 34.6144 12.2012 34.0259C12.7697 34.0259 13.3164 34.0259 13.9505 34.0259Z" fill="#787878"/>
<path d="M43.9297 34.0041C44.5201 34.0041 45.0667 34.0041 45.6571 34.0041C45.6571 34.5708 45.6571 35.094 45.6571 35.7044C45.1105 35.7044 44.5638 35.7044 43.9297 35.7044C43.9297 35.1594 43.9297 34.5926 43.9297 34.0041Z" fill="#787878"/>
</g>
<defs>
<clipPath id="clip0_1037_1494">
<rect width="56" height="40" fill="white" transform="translate(0 0.5)"/>
</clipPath>
</defs>
</svg>
