<svg width="91" height="91" viewBox="0 0 91 91" fill="none" xmlns="http://www.w3.org/2000/svg">
<g clip-path="url(#clip0_126_655)">
<path d="M79.3173 45.5186C79.3173 64.2182 64.218 79.3542 45.5184 79.3542C26.8922 79.3542 11.7194 64.2549 11.7194 45.7023C11.7194 26.8924 26.8187 11.7563 45.5918 11.7563C64.1813 11.7931 79.3173 26.9291 79.3173 45.5186ZM45.4816 76.4152C62.4546 76.452 76.3415 62.6017 76.3783 45.6288C76.415 28.6558 62.6015 14.7321 45.6653 14.6954C28.5822 14.6954 14.6952 28.5456 14.6585 45.592C14.6585 62.5282 28.5087 76.4152 45.4816 76.4152Z" fill="black"/>
<path d="M77.8111 8.92743C78.9132 8.92743 79.7582 8.92743 80.7868 8.92743C80.7868 11.8665 80.8603 14.6953 80.7134 17.5609C80.6766 18.1119 79.7214 19.0304 79.1336 19.0671C76.3415 19.2141 73.5495 19.1406 70.6104 19.1406C70.6104 18.1487 70.6104 17.267 70.6104 16.2016C72.3738 16.2016 74.1005 16.2016 75.8272 16.2016C75.9007 16.0546 75.9742 15.9076 76.0109 15.7974C74.3944 14.4014 72.8147 12.8951 71.088 11.6093C69.3613 10.2867 67.451 9.14786 65.4671 7.82529C65.8345 7.09053 66.2386 6.31903 66.8631 5.0332C70.6104 7.75181 74.1373 10.3235 77.7743 12.9686C77.8111 11.7195 77.8111 10.3969 77.8111 8.92743Z" fill="black"/>
<path d="M74.9088 76.6356C75.7905 75.7906 76.3783 75.2028 77.0763 74.5415C77.6641 75.0558 78.2886 75.6436 79.1704 76.4151C78.3621 77.0397 77.5906 77.5908 76.6354 78.3255C76.2313 77.9214 75.57 77.2969 74.9088 76.6356Z" fill="black"/>
<path d="M11.6459 75.5699C12.2338 75.0556 12.9318 74.4678 13.6665 73.8433C14.3278 74.578 14.9156 75.1658 15.5769 75.9006C14.9524 76.5619 14.3646 77.1864 13.5931 77.9947C12.9685 77.2599 12.3807 76.5251 11.6459 75.5699Z" fill="black"/>
<path d="M44.7101 2.93904C43.6815 2.93904 42.8365 2.93904 41.8813 2.93904C41.7711 2.1308 41.6609 1.32257 41.5139 0.257166C42.5793 0.18369 43.4978 0.110214 44.5999 0C44.6367 0.991926 44.6734 1.8369 44.7101 2.93904Z" fill="black"/>
<path d="M32.5499 1.91016C32.8805 2.90208 33.1009 3.71032 33.4316 4.66551C32.5866 4.95941 31.7416 5.25331 30.7497 5.62069C30.4191 4.73898 30.0884 3.93075 29.6843 2.86534C30.6395 2.5347 31.5212 2.2408 32.5499 1.91016Z" fill="black"/>
<path d="M4.62899 65.7244C5.54744 65.2468 6.2822 64.8794 7.23739 64.4019C7.67824 65.2101 8.1191 65.9449 8.67017 66.9C7.78846 67.4144 7.01696 67.8552 6.13525 68.3696C5.62092 67.5246 5.18006 66.7531 4.62899 65.7244Z" fill="black"/>
<path d="M2.68187 30.125C3.6738 30.4924 4.4453 30.7863 5.40048 31.1169C5.10658 32.0354 4.84941 32.8803 4.55551 33.8355C3.56358 33.5416 2.71861 33.2477 1.72668 32.9538C2.05733 31.9986 2.31449 31.1537 2.68187 30.125Z" fill="black"/>
<path d="M23.2551 85.3422C22.3 84.7544 21.5285 84.2768 20.6468 83.7625C21.1978 82.9175 21.6754 82.2195 22.2265 81.3745C23.0347 81.8521 23.8062 82.293 24.6879 82.8073C24.1736 83.6523 23.7695 84.4238 23.2551 85.3422Z" fill="black"/>
<path d="M0.110214 42.0283C1.21235 42.1385 2.02059 42.212 2.86556 42.3222C2.86556 43.2774 2.86556 44.1224 2.86556 45.0408C1.91038 45.0408 1.02866 45.0408 0.110214 45.0408C0.110214 44.0489 0.110214 43.1672 0.110214 42.0283Z" fill="black"/>
<path d="M16.2749 14.5849C15.5402 13.7766 14.9524 13.1521 14.2911 12.4173C15.0258 11.756 15.7239 11.1682 16.5321 10.4702C17.1566 11.205 17.7444 11.8663 18.4425 12.6745C17.7077 13.299 17.0464 13.8868 16.2749 14.5849Z" fill="black"/>
<path d="M58.7073 4.99644C59.0747 3.93104 59.3686 3.12281 59.6625 2.27783C60.6177 2.60847 61.4627 2.90238 62.4913 3.26976C62.1239 4.22495 61.7933 5.03318 61.4259 5.98837C60.4707 5.65773 59.6258 5.36382 58.7073 4.99644Z" fill="black"/>
<path d="M84.5709 69.0674C83.6524 68.5164 82.9544 68.1122 82.0359 67.5612C82.5135 66.7162 82.9176 65.9447 83.3952 65.063C84.277 65.5038 85.0485 65.908 86.0036 66.3856C85.5628 67.304 85.1219 68.0755 84.5709 69.0674Z" fill="black"/>
<path d="M87.5466 28.068C86.4812 28.5088 85.7832 28.8027 84.9015 29.1701C84.4974 28.3251 84.13 27.5169 83.6891 26.6352C84.5709 26.1943 85.3791 25.7535 86.2975 25.2759C86.7384 26.2311 87.1425 27.1128 87.5466 28.068Z" fill="black"/>
<path d="M88.6855 30.8599C88.9794 31.9253 89.2366 32.807 89.5305 33.7622C88.612 34.0561 87.8038 34.2765 86.8119 34.5704C86.518 33.6887 86.2241 32.8437 85.8934 31.8518C86.8119 31.5211 87.6201 31.2272 88.6855 30.8599Z" fill="black"/>
<path d="M90.0815 54.8868C89.8611 55.9522 89.6407 56.7971 89.4203 57.8258C88.4651 57.6054 87.6568 57.385 86.6282 57.1645C86.8119 56.2828 86.9588 55.4746 87.1792 54.4092C88.061 54.5561 88.9059 54.7031 90.0815 54.8868Z" fill="black"/>
<path d="M87.8773 40.1548C87.6936 39.1629 87.5466 38.3546 87.3629 37.3994C88.3549 37.179 89.1998 36.9953 90.1918 36.7749C90.3755 37.7301 90.5592 38.6118 90.7796 39.7139C89.7509 39.8609 88.8692 40.0078 87.8773 40.1548Z" fill="black"/>
<path d="M27.2229 84.0933C28.1413 84.4974 28.9128 84.828 29.8312 85.2321C29.4639 86.1506 29.17 86.9588 28.7658 87.9875C27.8107 87.5466 26.9657 87.1793 26.0105 86.7384C26.4146 85.82 26.7453 85.0484 27.2229 84.0933Z" fill="black"/>
<path d="M55.6948 90.008C55.4376 88.8692 55.2539 88.0977 55.0702 87.1792C55.952 86.922 56.7969 86.7016 57.8256 86.4077C58.1195 87.3629 58.3399 88.2079 58.6338 89.1998C57.6419 89.457 56.7235 89.7141 55.6948 90.008Z" fill="black"/>
<path d="M12.3807 18.7364C11.6092 18.1118 10.9112 17.5607 10.103 16.8995C10.801 16.0912 11.3888 15.3932 12.0868 14.585C12.8583 15.283 13.4828 15.9075 14.2176 16.6056C13.5931 17.377 13.042 18.0383 12.3807 18.7364Z" fill="black"/>
<path d="M0.477592 38.9791C0.661282 37.8402 0.808234 37.032 0.955186 36.04C1.87364 36.2237 2.68187 36.3707 3.71054 36.5544C3.60032 37.4728 3.52685 38.3545 3.37989 39.3832C2.35123 39.2362 1.46952 39.126 0.477592 38.9791Z" fill="black"/>
<path d="M67.1203 85.7466C66.606 84.7547 66.2019 84.0199 65.7243 83.175C66.5325 82.6974 67.304 82.2565 68.149 81.7422C68.7 82.5504 69.1409 83.2852 69.7287 84.1669C68.847 84.6812 68.0755 85.1588 67.1203 85.7466Z" fill="black"/>
<path d="M6.06177 61.8299C5.03311 62.2341 4.29835 62.528 3.41664 62.8953C3.04926 61.9769 2.71861 61.0952 2.35123 60.0665C3.34316 59.7359 4.1514 59.442 5.10658 59.1113C5.43723 60.1033 5.73113 60.9115 6.06177 61.8299Z" fill="black"/>
<path d="M85.7097 59.8462C86.6282 60.1768 87.4731 60.5075 88.4283 60.8381C88.061 61.7933 87.7671 62.6015 87.3629 63.6669C86.4812 63.2996 85.673 62.9322 84.6443 62.5281C85.0117 61.5729 85.3423 60.7646 85.7097 59.8462Z" fill="black"/>
<path d="M10.103 69.3247C10.6908 70.1329 11.2051 70.831 11.7929 71.6392C11.0581 72.227 10.3601 72.7781 9.51514 73.4394C8.8906 72.6311 8.37626 71.9331 7.71498 71.0514C8.44974 70.5003 9.1845 69.986 10.103 69.3247Z" fill="black"/>
<path d="M19.912 79.6478C19.2874 80.4928 18.7364 81.1908 18.1118 81.9991C17.3036 81.301 16.5688 80.7132 15.7606 80.0152C16.4586 79.2437 17.0464 78.5824 17.671 77.8477C18.4425 78.4722 19.1038 78.9865 19.912 79.6478Z" fill="black"/>
<path d="M72.778 78.3623C73.4392 79.1338 73.9903 79.8318 74.6516 80.6033C73.8434 81.2279 73.1453 81.7789 72.2636 82.477C71.6758 81.7055 71.1615 81.0074 70.5369 80.1257C71.3084 79.5379 72.0065 78.9869 72.778 78.3623Z" fill="black"/>
<path d="M25.5329 7.93536C25.0186 6.94343 24.6145 6.20867 24.1736 5.3637C25.092 4.92284 25.8635 4.51873 26.8555 4.00439C27.2596 4.84937 27.627 5.6576 28.1046 6.64953C27.2229 7.09039 26.4514 7.4945 25.5329 7.93536Z" fill="black"/>
<path d="M35.3052 86.922C35.048 87.9507 34.8276 88.7589 34.5704 89.7509C33.6153 89.4937 32.7703 89.31 31.6681 89.0161C31.962 88.0976 32.1825 87.2527 32.4764 86.2607C33.3948 86.4812 34.2398 86.7016 35.3052 86.922Z" fill="black"/>
<path d="M18.9568 8.56006C19.8753 7.93552 20.6468 7.42119 21.4917 6.87012C22.0428 7.75183 22.4836 8.52333 23.0347 9.3683C22.2632 9.91937 21.5652 10.397 20.7202 10.948C20.1324 10.1765 19.5813 9.44178 18.9568 8.56006Z" fill="black"/>
<path d="M38.0606 87.5835C39.0157 87.6937 39.7872 87.8039 40.6322 87.9141C40.6322 88.8326 40.6322 89.6776 40.6322 90.8164C39.5668 90.6695 38.6484 90.5593 37.583 90.4491C37.7667 89.3837 37.9136 88.5387 38.0606 87.5835Z" fill="black"/>
<path d="M91 42.873C91 43.9752 91 44.7834 91 45.7753C90.155 45.7753 89.2733 45.7753 88.2814 45.7753C88.2814 44.9304 88.2814 44.1221 88.2814 43.02C89.0161 42.9833 89.8979 42.9465 91 42.873Z" fill="black"/>
<path d="M7.71497 25.9004C7.23738 26.8556 6.87 27.5904 6.42914 28.4354C5.54743 28.068 4.77594 27.7373 3.82075 27.2965C4.22487 26.378 4.62898 25.5331 5.06984 24.5044C6.02503 25.0187 6.79652 25.4228 7.71497 25.9004Z" fill="black"/>
<path d="M10.6908 21.0509C10.1029 21.8959 9.69883 22.5572 9.11102 23.4021C8.30278 22.9245 7.53129 22.4837 6.64957 21.9326C7.20064 21.0509 7.67824 20.2794 8.26605 19.3242C9.11102 19.912 9.84578 20.4264 10.6908 21.0509Z" fill="black"/>
<path d="M80.4929 69.9858C81.3012 70.5369 81.9624 71.0145 82.8442 71.6023C82.2563 72.4105 81.742 73.182 81.0807 74.1005C80.2725 73.4392 79.6112 72.8881 78.803 72.2269C79.354 71.4554 79.9051 70.7941 80.4929 69.9858Z" fill="black"/>
<path d="M56.0254 4.188C55.0335 4.00431 54.1885 3.82062 53.1966 3.63693C53.3803 2.645 53.564 1.80003 53.7477 0.808105C54.7029 0.991795 55.5478 1.17549 56.65 1.39591C56.4296 2.31436 56.2459 3.15934 56.0254 4.188Z" fill="black"/>
<path d="M36.1869 3.9679C35.9665 2.97598 35.7828 2.16774 35.5256 1.17582C36.4808 0.992125 37.3625 0.808435 38.4279 0.55127C38.6116 1.50646 38.7586 2.38817 38.979 3.38009C38.0238 3.60052 37.2156 3.78421 36.1869 3.9679Z" fill="black"/>
<path d="M0.36738 51.2128C0.220428 50.0739 0.110214 49.1922 0 48.2003C0.991926 48.1268 1.80016 48.0901 2.86556 48.0166C3.01252 48.8616 3.12273 49.6698 3.30642 50.6985C2.35123 50.8822 1.46952 51.0291 0.36738 51.2128Z" fill="black"/>
<path d="M50.2208 3.30619C49.2289 3.15923 48.4574 3.04902 47.5022 2.93881C47.5757 1.98362 47.6492 1.13864 47.7226 0.0732422C48.7513 0.183456 49.633 0.256932 50.7352 0.403884C50.5515 1.43255 50.4045 2.31426 50.2208 3.30619Z" fill="black"/>
<path d="M3.63706 53.6006C3.85749 54.5558 4.04118 55.364 4.29834 56.3927C3.37989 56.6131 2.57166 56.8335 1.54299 57.1274C1.28583 56.1355 1.0654 55.2171 0.844971 54.2251C1.76342 54.0047 2.57166 53.821 3.63706 53.6006Z" fill="black"/>
<path d="M88.061 48.7515C89.0529 48.8249 89.8979 48.8617 90.9265 48.9352C90.8163 49.8903 90.7428 50.7721 90.6326 51.8375C89.7142 51.764 88.8325 51.6905 87.7303 51.5803C87.8773 50.5884 87.9507 49.7434 88.061 48.7515Z" fill="black"/>
<path d="M60.5075 85.526C61.4626 85.1218 62.2341 84.8279 63.1526 84.4238C63.5567 85.3055 63.9241 86.077 64.4017 87.0322C63.4465 87.4363 62.6383 87.8037 61.6463 88.2078C61.2422 87.3629 60.9116 86.5546 60.5075 85.526Z" fill="black"/>
<path d="M52.3149 87.7305C52.4251 88.7959 52.5353 89.6041 52.6823 90.6328C51.6536 90.7062 50.7719 90.7797 49.6698 90.8532C49.633 89.898 49.5963 89.053 49.5228 87.9876C50.4045 87.9142 51.2128 87.8407 52.3149 87.7305Z" fill="black"/>
<path d="M43.8284 88.208C44.7836 88.208 45.5551 88.208 46.4736 88.208C46.4736 89.1265 46.4736 90.0082 46.4736 91.0001C45.6286 91.0001 44.7469 91.0001 43.8284 91.0001C43.8284 90.0816 43.8284 89.1632 43.8284 88.208Z" fill="black"/>
<path d="M45.4816 76.4151C28.5087 76.3784 14.6585 62.5281 14.6585 45.5919C14.6585 28.5455 28.5454 14.6953 45.6286 14.732C62.5648 14.7687 76.3783 28.6924 76.3415 45.6654C76.3415 62.6383 62.4546 76.4518 45.4816 76.4151ZM36.7013 39.7138C32.4029 39.7138 28.3617 39.7506 24.3206 39.6771C22.5571 39.6404 21.9326 40.3384 21.9693 42.0651C22.0428 47.3921 22.0061 52.7191 21.9693 58.0461C21.9693 59.5524 22.4837 60.2871 24.1001 60.2871C33.4683 60.2504 42.8365 60.2504 52.2047 60.2871C53.7844 60.2871 54.409 59.6258 54.3722 58.0828C54.2988 55.9153 54.3722 53.7478 54.3722 51.47C58.744 51.47 62.822 51.4333 66.9366 51.47C68.3694 51.47 69.1042 50.9924 69.1042 49.4494C69.0674 43.9387 69.0674 38.428 69.1042 32.9173C69.1042 31.558 68.5898 30.86 67.157 30.86C57.6786 30.86 48.2002 30.86 38.6851 30.86C37.2891 30.86 36.7013 31.5213 36.738 32.8806C36.738 35.0849 36.7013 37.2891 36.7013 39.7138Z" fill="white"/>
<path d="M36.7013 39.7136C36.7013 37.2889 36.738 35.1214 36.7013 32.9171C36.6645 31.5578 37.2523 30.8965 38.6484 30.8965C48.1268 30.8965 57.6052 30.8965 67.1203 30.8965C68.5531 30.8965 69.0674 31.5945 69.0674 32.9538C69.0307 38.4645 69.0307 43.9752 69.0674 49.4859C69.0674 51.0289 68.3327 51.5065 66.8999 51.5065C62.822 51.4698 58.7073 51.5065 54.3355 51.5065C54.3355 53.7843 54.2987 55.9518 54.3355 58.1193C54.3722 59.6623 53.7844 60.3236 52.1679 60.3236C42.7998 60.2869 33.4316 60.2869 24.0634 60.3236C22.4469 60.3236 21.9326 59.5889 21.9326 58.0826C21.9693 52.7556 22.0061 47.4286 21.9326 42.1016C21.8958 40.3749 22.5204 39.6769 24.2838 39.7136C28.3617 39.7503 32.4029 39.7136 36.7013 39.7136ZM38.2075 57.3478C40.3016 57.3478 42.3589 57.4213 44.4162 57.3111C44.9306 57.2744 45.6653 56.76 45.9225 56.2457C46.8777 54.1884 48.237 52.6086 50.4045 51.9474C51.5067 51.6167 51.4332 50.9187 51.3964 50.1472C51.3597 49.3757 51.6904 48.494 50.4413 48.1266C48.2002 47.4286 46.8042 45.8121 45.8858 43.6813C45.7021 43.2404 44.9673 42.7629 44.4897 42.7629C40.2648 42.6894 36.0767 42.6894 31.8518 42.7629C31.3742 42.7629 30.6762 43.2772 30.4558 43.7548C29.5741 45.8121 28.178 47.4286 26.0472 48.1266C24.8716 48.494 24.9451 49.2287 24.9451 50.0737C24.9451 50.9187 24.7614 51.6534 26.0105 52.0576C28.1046 52.6821 29.6108 54.1884 30.3088 56.2457C30.6762 57.2744 31.1906 57.4948 32.1825 57.458C34.1663 57.2744 36.1869 57.3478 38.2075 57.3478ZM54.1151 48.0899C54.2988 48.2368 54.4457 48.347 54.6294 48.494C56.2091 48.494 57.7889 48.5675 59.3686 48.4572C59.8095 48.4205 60.434 47.9429 60.6177 47.5388C61.4994 45.3713 63.0057 43.9385 65.1365 42.9833C65.6141 42.7629 65.9814 41.8444 66.0916 41.2199C66.2386 40.4484 66.3488 39.6034 65.1365 39.236C62.9689 38.5747 61.6096 36.9583 60.6544 34.9009C60.434 34.4233 59.7727 33.8723 59.3319 33.8723C55.0702 33.7988 50.7719 33.7988 46.5103 33.8723C46.0694 33.8723 45.4082 34.2396 45.2979 34.5703C44.453 36.9583 42.7998 38.5012 40.0077 39.6401C42.7998 39.6401 45.004 39.6401 47.2451 39.6401C47.3553 39.4197 47.4287 39.2727 47.5022 39.1258C48.7881 36.4072 51.1025 35.0111 53.7844 35.3785C56.2826 35.7092 58.4134 37.7665 58.8175 40.3014C59.2584 42.8363 57.9358 45.1508 55.4009 46.6203C54.7763 46.8408 54.4824 47.5755 54.1151 48.0899ZM54.5192 43.6813C55.6213 42.469 56.2826 41.3301 55.5478 40.1545C55.0335 39.3462 54.0416 38.538 53.1231 38.3176C52.3884 38.1339 51.4699 38.8319 50.625 39.1258C50.6984 39.2727 50.7352 39.4197 50.8086 39.5666C54.0783 39.8606 54.0783 39.8606 54.5192 43.6813ZM51.3597 54.9599C51.176 54.7762 50.9923 54.6292 50.8086 54.4455C50.0371 55.217 49.3024 55.9885 48.5309 56.76C48.7146 56.907 48.8615 57.0539 49.0452 57.2376C49.8167 57.2376 50.5515 57.2376 51.3597 57.2376C51.3597 56.3927 51.3597 55.6946 51.3597 54.9599ZM25.0186 44.9671C25.1288 45.0773 25.2757 45.1508 25.386 45.261C26.1207 44.4895 26.8555 43.718 27.8107 42.7261C26.5983 42.7261 25.8268 42.7261 25.0186 42.7261C25.0186 43.5344 25.0186 44.2691 25.0186 44.9671ZM63.3363 47.9429C63.4465 48.0899 63.5935 48.2736 63.7037 48.4205C64.4752 48.4205 65.2099 48.4205 65.9814 48.4205C65.9814 47.5755 65.9814 46.8408 65.9814 46.106C65.8345 45.9958 65.6875 45.8856 65.5038 45.7754C64.8058 46.4734 64.0711 47.2082 63.3363 47.9429ZM63.7037 33.8723C63.6302 34.0192 63.5567 34.1662 63.4465 34.3131C64.218 35.0111 64.9895 35.7092 65.9447 36.5909C65.9447 35.4153 65.9447 34.6438 65.9447 33.8723C65.1365 33.8723 64.4017 33.8723 63.7037 33.8723ZM50.7719 45.4447C50.9556 45.2978 51.1393 45.1508 51.323 45.0039C51.323 44.2324 51.323 43.4976 51.323 42.7261C50.478 42.7261 49.7432 42.7261 49.0085 42.7261C48.8615 42.9098 48.7146 43.0935 48.5676 43.2772C49.2656 44.0119 50.0004 44.7467 50.7719 45.4447ZM39.7872 33.909C39.7872 34.6805 39.7872 35.452 39.7872 36.7746C40.8526 35.7459 41.6241 35.0479 42.3956 34.3131C42.2854 34.1662 42.1752 34.0192 42.065 33.909C41.3302 33.909 40.6322 33.909 39.7872 33.909ZM27.3698 57.2376C27.48 57.0907 27.5902 56.9805 27.6637 56.8335C26.9289 56.062 26.1942 55.3272 25.4594 54.5557C25.3125 54.666 25.1655 54.7762 25.0186 54.9231C25.0186 55.6579 25.0186 56.4294 25.0186 57.2376C25.8635 57.2376 26.635 57.2376 27.3698 57.2376Z" fill="black"/>
<path d="M38.2075 57.3478C36.1869 57.3478 34.1663 57.3111 32.1457 57.3846C31.1906 57.4213 30.6395 57.2009 30.2721 56.1722C29.5741 54.1149 28.0678 52.6086 25.9738 51.9841C24.7614 51.6167 24.9451 50.8452 24.9084 50.0002C24.9084 49.1553 24.7981 48.4205 26.0105 48.0531C28.1413 47.3551 29.5373 45.7754 30.4191 43.6813C30.6027 43.2405 31.3008 42.7261 31.8151 42.6894C36.04 42.6159 40.2281 42.6159 44.453 42.6894C44.9306 42.6894 45.6653 43.167 45.849 43.6078C46.7675 45.7386 48.1635 47.3918 50.4045 48.0531C51.6536 48.4573 51.323 49.3022 51.3597 50.0737C51.3964 50.8452 51.4699 51.5432 50.3678 51.8739C48.2002 52.5352 46.8409 54.1516 45.8857 56.1722C45.6653 56.6498 44.9306 57.2009 44.3795 57.2376C42.3589 57.4213 40.2648 57.3478 38.2075 57.3478ZM44.0488 50.037C44.0488 46.804 41.5139 44.1956 38.281 44.1222C34.9746 44.0487 32.2927 46.6938 32.2927 49.9635C32.2927 53.2699 34.9378 55.9151 38.2442 55.8783C41.4404 55.8416 44.0488 53.2332 44.0488 50.037Z" fill="white"/>
<path d="M54.1151 48.0898C54.5192 47.5755 54.7763 46.8408 55.2907 46.5469C57.8256 45.0773 59.1482 42.7628 58.7073 40.2279C58.3032 37.7297 56.1724 35.6357 53.6742 35.305C51.0291 34.9376 48.7146 36.3337 47.392 39.0523C47.3185 39.1993 47.2451 39.3829 47.1348 39.5666C44.9306 39.5666 42.6895 39.5666 39.8975 39.5666C42.6895 38.4645 44.3428 36.8848 45.1877 34.4968C45.2979 34.1661 45.996 33.7988 46.4001 33.7988C50.6617 33.762 54.96 33.7253 59.2216 33.7988C59.6992 33.7988 60.3605 34.3866 60.5442 34.8274C61.4627 36.8848 62.8587 38.5012 65.0262 39.1625C66.2753 39.5299 66.1284 40.3749 65.9814 41.1464C65.8712 41.7709 65.5406 42.6894 65.0262 42.9098C62.8954 43.865 61.3892 45.2978 60.5075 47.4653C60.3238 47.9062 59.6992 48.3837 59.2584 48.3837C57.6786 48.494 56.0989 48.4205 54.5192 48.4205C54.4457 48.3838 54.262 48.2368 54.1151 48.0898Z" fill="white"/>
<path d="M54.5192 43.6816C54.0783 39.8608 54.0783 39.8608 50.7719 39.6037C50.6984 39.4567 50.6617 39.3098 50.5882 39.1628C51.4332 38.8689 52.3884 38.1709 53.0864 38.3546C54.0048 38.575 54.9968 39.3832 55.5111 40.1915C56.2826 41.3303 55.6213 42.4692 54.5192 43.6816Z" fill="white"/>
<path d="M51.3597 54.9601C51.3597 55.6949 51.3597 56.3929 51.3597 57.2379C50.5515 57.2379 49.78 57.2379 49.0452 57.2379C48.8615 57.0909 48.7146 56.944 48.5309 56.7603C49.3024 55.9888 50.0371 55.2173 50.8086 54.4458C50.9923 54.6295 51.176 54.7764 51.3597 54.9601Z" fill="white"/>
<path d="M25.0186 44.9671C25.0186 44.2691 25.0186 43.5343 25.0186 42.7261C25.8268 42.7261 26.5983 42.7261 27.8107 42.7261C26.8555 43.718 26.1207 44.4895 25.3859 45.261C25.2757 45.1875 25.1288 45.0773 25.0186 44.9671Z" fill="white"/>
<path d="M63.3363 47.943C64.071 47.2083 64.7691 46.4735 65.5038 45.7388C65.6508 45.849 65.7977 45.9592 65.9814 46.0694C65.9814 46.8042 65.9814 47.5389 65.9814 48.3839C65.2467 48.3839 64.4752 48.3839 63.7037 48.3839C63.5935 48.237 63.4832 48.09 63.3363 47.943Z" fill="white"/>
<path d="M63.7037 33.8726C64.4017 33.8726 65.1365 33.8726 65.9814 33.8726C65.9814 34.6441 65.9814 35.4156 65.9814 36.5912C65.0262 35.7462 64.2547 35.0482 63.4832 34.3134C63.5567 34.1665 63.6302 34.0195 63.7037 33.8726Z" fill="white"/>
<path d="M50.7719 45.4451C50.0371 44.747 49.3024 44.0123 48.5676 43.3143C48.7146 43.1306 48.8615 42.9469 49.0085 42.7632C49.7432 42.7632 50.478 42.7632 51.323 42.7632C51.323 43.4979 51.323 44.2694 51.323 45.0409C51.1025 45.1879 50.9189 45.2981 50.7719 45.4451Z" fill="white"/>
<path d="M39.7872 33.9092C40.6322 33.9092 41.3302 33.9092 42.065 33.9092C42.1752 34.0561 42.2854 34.2031 42.3956 34.3133C41.6241 35.0481 40.8526 35.7461 39.7872 36.7747C39.7872 35.4522 39.7872 34.6439 39.7872 33.9092Z" fill="white"/>
<path d="M27.3698 57.238C26.635 57.238 25.8635 57.238 25.0553 57.238C25.0553 56.4298 25.0553 55.6583 25.0553 54.9235C25.2023 54.8133 25.3492 54.7031 25.4962 54.5562C26.2309 55.3277 26.9657 56.0624 27.7005 56.8339C27.5535 56.9809 27.48 57.1278 27.3698 57.238Z" fill="white"/>
<path d="M44.0489 50.0369C44.0489 53.2331 41.4405 55.8415 38.2442 55.8783C34.9378 55.915 32.2927 53.2699 32.2927 49.9634C32.2927 46.6938 35.0113 44.0486 38.281 44.1221C41.5139 44.1588 44.0856 46.804 44.0489 50.0369ZM41.1098 50.0002C41.1098 48.4204 39.7872 47.0611 38.2075 47.0611C36.6278 47.0611 35.2685 48.3837 35.2685 49.9634C35.2685 51.5432 36.591 52.9025 38.1708 52.9025C39.7138 52.9392 41.1098 51.5799 41.1098 50.0002Z" fill="black"/>
<path d="M41.1098 50.0006C41.1098 51.5803 39.7505 52.9029 38.1708 52.9029C36.591 52.9029 35.2685 51.5436 35.2685 49.9638C35.2685 48.3841 36.6278 47.0615 38.2075 47.0615C39.7872 47.0615 41.1098 48.4208 41.1098 50.0006Z" fill="white"/>
</g>
<defs>
<clipPath id="clip0_126_655">
<rect width="91" height="91" fill="white"/>
</clipPath>
</defs>
</svg>
