<svg width="85" height="86" viewBox="0 0 85 86" fill="none" xmlns="http://www.w3.org/2000/svg">
<g clip-path="url(#clip0_126_795)">
<path d="M58.0111 1.67822L83.185 25.444V28.0287L47.0878 65.5236L42.4832 64.5838L38.9205 60.9585L46.8861 53.6072L48.9027 48.8406L45.7434 43.8726L41.5085 45.0139L32.9715 52.6002L29.7449 52.5666L19.5275 42.0264V37.6962L31.8624 25.444L52.0957 7.45184L58.0111 1.67822Z" fill="white"/>
<path d="M74.8161 26.8541C74.3456 27.5255 74.0767 28.0961 73.6398 28.4989C68.0941 34.0711 62.5148 39.6434 56.9355 45.182C56.1289 45.9876 55.255 46.424 54.3139 45.5177C53.3392 44.5778 53.709 43.6043 54.5492 42.7651C60.1285 37.1929 65.6742 31.6207 71.2871 26.1156C71.7912 25.6457 72.7659 25.3772 73.4717 25.4443C73.9423 25.5114 74.312 26.317 74.8161 26.8541Z" fill="black"/>
<path d="M52.0957 18.1264C52.0957 14.8368 54.7509 12.1514 58.0447 12.1514C61.3049 12.1514 63.9601 14.8368 63.9601 18.16C63.9601 21.4496 61.2713 24.1685 58.0111 24.1685C54.7509 24.135 52.0957 21.4496 52.0957 18.1264ZM55.4567 18.0257C55.3895 19.4355 56.4986 20.644 57.8766 20.7111C59.2547 20.8118 60.4646 19.7041 60.5655 18.2942C60.6663 16.8173 59.5235 15.5417 58.0783 15.5081C56.7339 15.5081 55.5239 16.6494 55.4567 18.0257Z" fill="black"/>
<path d="M38.9205 33.0304C38.5844 33.601 38.3828 34.071 38.0467 34.4067C36.3326 36.1522 34.5848 37.8977 32.8371 39.6432C32.0641 40.4152 31.1902 40.6838 30.3164 39.9117C29.4089 39.0725 29.6105 38.0991 30.4508 37.2935C32.1985 35.5479 33.879 33.7689 35.694 32.1241C36.1645 31.7212 37.1056 31.587 37.7778 31.7212C38.2147 31.7548 38.5172 32.5269 38.9205 33.0304Z" fill="black"/>
<path d="M39.1558 20.3417C38.4836 20.7445 37.8114 21.3823 37.1056 21.483C36.0637 21.5837 35.3915 20.7445 35.6604 19.771C35.862 19.1668 36.7023 18.3276 37.24 18.3276C37.8786 18.3612 38.5172 19.1668 39.1558 19.6368C39.1558 19.8717 39.1558 20.1067 39.1558 20.3417Z" fill="black"/>
<path d="M26.3839 51.8618C24.1657 49.6799 22.1154 47.733 20.0988 45.6854C16.637 42.2279 16.637 38.0655 20.0988 34.6081C23.4598 31.2178 26.7873 27.861 30.2155 24.5378C30.7196 24.0343 31.5935 23.5979 32.2321 23.6651C33.6773 23.7993 33.9798 25.5113 32.7699 26.7533C29.9802 29.573 27.157 32.3926 24.3337 35.1787C23.5271 35.9844 22.7204 36.7228 21.981 37.562C20.5694 39.1733 20.5022 41.1538 21.981 42.7314C24.5354 45.4168 27.157 48.0015 29.8122 50.5862C30.7532 51.4926 31.7952 51.4254 32.7362 50.4855C34.7865 48.4379 36.8031 46.3232 38.9205 44.3427C40.9035 42.4629 43.2898 41.8587 45.9114 42.8321C48.4322 43.772 49.8774 45.6518 50.2471 48.3372C50.5496 50.6198 49.7094 52.4996 48.0961 54.0773C45.6761 56.4605 43.2226 58.8438 40.8363 61.2271C42.6176 64.3825 45.5081 64.8524 47.8944 62.4691C58.5824 51.7947 69.2704 41.1202 79.9585 30.4457C82.1095 28.2974 82.0759 26.2498 79.8912 24.0679C73.6061 17.6565 67.2875 11.3458 60.9351 5.0351C58.7505 2.85321 56.7675 2.81964 54.5492 5.0351C51.4235 8.15688 48.2977 11.2787 45.172 14.4004C44.9031 14.669 44.6006 14.9375 44.3317 15.2396C43.4915 16.1124 42.5168 16.8173 41.4413 15.7767C40.3994 14.7361 40.9707 13.7627 41.8782 12.8899C42.5168 12.2521 43.1554 11.6143 43.794 11.0101C46.6172 8.19045 49.4069 5.37078 52.2301 2.58467C55.6583 -0.839217 59.826 -0.839217 63.187 2.51754C69.6065 8.92893 76.0261 15.3068 82.4456 21.7517C85.8402 25.142 85.8402 29.3044 82.4792 32.6947C76.463 38.7033 70.4468 44.7119 64.4306 50.7541C63.792 51.3918 63.2542 52.231 62.9181 53.1038C60.8343 58.5753 58.8177 64.0804 56.8347 69.5854C54.9189 74.8556 51.3563 78.2794 45.9114 79.7564C42.4496 80.6963 38.9877 81.6026 35.5931 82.7104C34.3159 83.1132 33.1396 83.9523 32.064 84.758C31.0893 85.4965 30.2155 86.7385 28.9383 85.4965C27.6947 84.288 28.7366 83.3481 29.5769 82.3747C30.9549 80.7634 32.6018 79.8907 34.652 79.3536C38.3827 78.4137 42.0799 77.306 45.777 76.2318C48.8691 75.3255 51.3899 73.4457 52.667 70.5253C54.4484 66.4637 55.8936 62.2342 57.2044 57.9039C55.0198 60.1194 52.8015 62.3013 50.6168 64.5168C46.7853 68.3435 42.9873 68.377 39.0213 64.6175C38.8197 64.4161 38.618 64.2482 38.4164 64.1139C38.2483 64.1475 38.1139 64.1475 38.0466 64.2146C37.1392 65.0538 36.0973 65.8595 35.0217 64.651C33.9462 63.4762 34.8537 62.5363 35.7275 61.6635C39.0886 58.3068 42.4496 54.95 45.8106 51.5933C46.7853 50.6198 47.3566 49.3442 46.6508 48.1022C46.1131 47.1959 45.1048 46.1217 44.1637 45.9875C43.1554 45.8532 41.7774 46.4574 40.9371 47.1623C38.8197 48.975 36.8703 51.0226 34.9881 53.0702C33.9798 54.1444 32.9379 54.5472 31.4591 54.5808C25.8798 54.6479 21.6785 57.904 20.3677 63.0398C20.2333 63.5097 20.0988 64.0468 20.1324 64.5168C20.5022 67.37 19.0569 69.2833 17.0739 71.1631C12.4021 75.594 7.93197 80.2264 3.361 84.758C2.95767 85.1608 2.55435 85.6643 2.08381 85.765C1.51244 85.8657 0.604966 85.7986 0.302475 85.4293C-0.0672368 84.9929 -0.134457 84.1202 -1.65254e-05 83.516C0.100814 83.046 0.672186 82.6768 1.07551 82.274C5.91537 77.4403 10.7552 72.6401 15.5615 67.7728C16.032 67.3029 16.5698 66.5979 16.5698 65.9602C16.805 59.2131 20.0988 54.6815 26.3839 51.8618Z" fill="black"/>
</g>
<defs>
<clipPath id="clip0_126_795">
<rect width="85" height="86" fill="white"/>
</clipPath>
</defs>
</svg>
