<svg width="97" height="97" viewBox="0 0 97 97" fill="none" xmlns="http://www.w3.org/2000/svg">
<g clip-path="url(#clip0_126_898)">
<path d="M31.0683 30.9475C40.2217 21.794 49.3751 12.6406 58.5285 3.48721C60.9501 1.06567 63.0297 1.06281 65.4205 3.45354C68.0768 6.10991 70.709 8.79049 73.4138 11.3984C74.573 12.5092 75.0307 13.7902 74.9318 15.3864C74.684 19.7395 77.0506 22.0577 81.4521 21.8098C82.9756 21.7352 84.2083 22.1929 85.295 23.2796C88.0479 26.081 90.8492 28.8339 93.6021 31.6352C95.5823 33.6154 95.5791 35.9369 93.5934 37.9709C75.0444 56.5199 56.4712 75.0931 37.9222 93.6421C35.9123 95.6519 33.5909 95.6068 31.6107 93.6266C28.8336 90.8495 26.0807 88.0481 23.2552 85.3194C22.1443 84.257 21.7107 83.0001 21.8095 81.5007C22.0575 77.0508 19.7151 74.66 15.3619 74.9562C13.7658 75.0551 12.509 74.5732 11.3982 73.414C8.71781 70.6368 5.91641 67.9322 3.21181 65.1792C1.13502 63.1024 1.16229 60.8535 3.24482 58.7709C12.5193 49.4964 21.7938 40.2219 31.0683 30.9475ZM32.9036 32.7828C23.7502 41.9362 14.5968 51.0896 5.44336 60.243C3.89357 61.7928 3.89304 62.1797 5.43856 63.7252C7.92589 66.2126 10.4616 68.6998 12.9005 71.2356C13.7215 72.0566 14.5433 72.394 15.7766 72.3198C20.9279 71.95 24.7915 76.0072 24.5184 81.1584C24.4689 81.9323 24.806 82.9958 25.3615 83.5513C27.9452 86.2803 30.65 88.8882 33.2821 91.5688C34.3447 92.6313 35.191 92.6544 36.2807 91.5647C54.6845 73.1126 73.1366 54.6605 91.5886 36.2567C92.6783 35.167 92.7037 34.3206 91.617 33.2339C88.9364 30.6018 86.3285 27.897 83.5994 25.3133C83.0198 24.7821 82.0046 24.4449 81.2066 24.4702C75.9587 24.7434 72.0465 20.8797 72.2715 15.5835C72.2968 14.7371 71.9114 13.6736 71.356 13.0698C69.0138 10.5339 66.5022 8.11918 64.0391 5.656C62.1796 3.79655 61.9378 3.79688 60.0732 5.66147C50.9683 14.7181 41.9359 23.7504 32.9036 32.7828Z" fill="black"/>
<path d="M32.2203 54.91C33.5037 53.6266 34.4724 52.6096 35.4651 51.6652C36.9664 50.2122 38.4174 50.1618 39.963 51.659C43.6578 55.3054 47.3043 58.9519 50.9507 62.6467C52.3755 64.0715 52.3734 65.5708 50.9688 67.0236C46.6342 71.4065 42.2755 75.7653 37.8925 80.0999C36.488 81.5044 34.9647 81.434 33.564 80.0333C29.8692 76.3869 26.2227 72.7405 22.5763 69.0456C21.0791 67.5484 21.1053 66.1216 22.5825 64.5961C23.4785 63.6518 24.4229 62.7074 25.3431 61.7872C25.3673 61.763 25.3432 61.6905 25.4161 61.4727C24.3518 61.6677 23.3358 61.9109 22.2957 62.0816C20.5301 62.35 18.9587 61.9895 17.9452 60.4432C16.9799 58.9936 16.9579 57.4218 17.9031 55.9454C18.8967 54.3722 20.4449 53.9348 22.234 54.2225C23.3703 54.3902 24.4582 54.6547 25.7395 54.919C25.4992 53.7586 25.2831 52.6707 25.0912 51.5586C24.7793 49.7453 25.1685 48.1004 26.7901 47.0584C28.2665 46.1132 29.8142 46.1111 31.2879 47.1005C32.9066 48.1865 33.243 49.782 32.9261 51.5961C32.7314 52.5153 32.5124 53.5071 32.2203 54.91ZM24.1754 66.8187C25.1897 67.8329 26.059 68.7023 27.0733 69.7165C27.5334 69.2564 27.9208 68.869 28.3083 68.4816C30.6572 66.1327 32.9335 63.7597 35.379 61.5074C35.8633 61.0714 37.1211 60.7795 37.5076 61.0692C38.4498 61.7692 37.8924 62.6647 37.1901 63.3669C36.4637 64.0934 35.7372 64.8198 35.0107 65.5463C33.0009 67.5562 31.0152 69.5418 28.9811 71.5759C31.3477 73.9425 33.5211 76.1159 35.7428 78.3376C40.271 73.8093 44.7509 69.3295 49.2549 64.8254C46.985 62.5554 44.7874 60.3579 42.9521 58.5226C41.646 58.7178 40.7027 58.8884 39.7352 59.0348C39.8091 58.0433 39.9072 57.0758 40.03 55.6489C39.5712 55.1901 38.6536 54.2724 37.6876 53.3065C33.1835 57.8106 28.7279 62.2662 24.1754 66.8187ZM28.6887 55.6404C28.8579 55.6643 29.0514 55.664 29.2206 55.688C29.5856 54.0673 30.0473 52.4465 30.3397 50.8017C30.5346 49.7858 30.1005 48.9158 28.9397 48.9658C27.8272 49.0157 27.3667 49.8143 27.5587 50.8781C27.895 52.4736 28.304 54.0449 28.6887 55.6404ZM26.4843 58.376C26.4846 58.1825 26.4849 57.9891 26.4851 57.7956C24.9138 57.435 23.3425 57.0261 21.7711 56.7139C20.7316 56.4977 19.8604 56.9342 19.8347 58.0708C19.8089 59.2073 20.6547 59.6656 21.719 59.4707C23.3154 59.1783 24.8878 58.7651 26.4843 58.376Z" fill="black"/>
<path d="M65.9605 50.3417C65.3559 50.415 64.8235 50.6576 64.5578 50.4887C64.0987 50.175 63.64 49.6194 63.5682 49.1117C63.2086 46.8149 62.97 44.4937 62.683 42.1726C61.7504 34.5566 60.8178 26.9405 59.861 19.3003C59.7656 18.3815 59.501 17.3421 60.7829 17.1227C62.1858 16.8789 62.3052 17.9669 62.4248 18.9582C63.6204 28.7745 64.8643 38.5907 66.0357 48.4312C66.0833 49.0115 65.9615 49.6162 65.9605 50.3417Z" fill="black"/>
<path d="M48.4821 28.9885C50.6129 26.9059 54.1435 26.9495 56.1718 29.123C58.1518 31.2 58.1229 34.658 56.0888 36.6921C54.0305 38.7504 50.4273 38.7796 48.3747 36.6786C46.3222 34.5776 46.3754 31.0469 48.4821 28.9885ZM54.1864 30.8669C53.0272 29.7561 51.3344 29.8068 50.2446 30.9932C49.179 32.1071 49.201 33.7272 50.2877 34.8139C51.4227 35.9489 53.1154 35.9466 54.2535 34.8085C55.3675 33.6946 55.3456 31.9777 54.1864 30.8669Z" fill="black"/>
<path d="M69.7249 38.6082C67.6481 36.5314 67.6772 32.9766 69.7839 30.9183C71.9148 28.8357 75.4211 28.9034 77.4737 31.0044C79.4537 33.0813 79.449 36.5152 77.4391 38.5734C75.4049 40.6559 71.7776 40.6609 69.7249 38.6082ZM75.5312 36.714C76.6694 35.5759 76.6233 33.8832 75.4641 32.7725C74.3532 31.71 72.7572 31.7122 71.6433 32.7777C70.4811 33.8917 70.4545 35.6087 71.5654 36.7195C72.7004 37.8545 74.4415 37.8521 75.5312 36.714Z" fill="black"/>
<path d="M35.7504 37.6153C35.5572 37.4221 35.219 37.2291 35.1709 36.9874C35.0026 36.2863 34.9552 35.6093 34.8595 34.884C35.5606 34.9555 36.3588 34.8335 36.963 35.0987C37.543 35.3397 38.1226 35.9193 38.3878 36.5235C38.6529 37.1277 38.5552 37.9016 38.6025 38.627C37.9013 38.5554 37.1759 38.5081 36.4991 38.3155C36.1848 38.2434 35.9919 37.8568 35.7504 37.6153Z" fill="black"/>
<path d="M43.5315 41.667C43.773 41.9085 44.1596 42.1015 44.2076 42.3916C44.376 43.0443 44.375 43.7214 44.4467 44.3742C43.7213 44.3268 42.9715 44.4487 42.3673 44.1836C41.7872 43.9426 41.2077 43.363 40.9425 42.7588C40.6773 42.1546 40.751 41.3565 40.6794 40.6553C41.3806 40.7269 42.106 40.7743 42.807 40.9426C43.0971 41.0389 43.29 41.4256 43.5315 41.667Z" fill="black"/>
<path d="M49.7135 47.8491C49.7135 47.8491 50.1968 48.1386 50.2688 48.5012C50.4132 49.033 50.4604 49.8551 50.1456 50.1699C49.8308 50.4847 48.9361 50.5101 48.5011 50.2689C47.8004 49.8588 47.1 49.2068 46.6899 48.5061C46.3762 47.9987 46.4982 47.2006 46.4024 46.5236C47.1037 46.5468 47.8291 46.5458 48.506 46.69C48.8686 46.8104 49.1098 47.2453 49.7135 47.8491Z" fill="black"/>
<path d="M55.1229 53.2584C55.3644 53.4999 55.7752 53.717 55.799 53.9829C55.9431 54.6598 55.9179 55.4095 55.9411 56.1108C55.2883 56.0391 54.5386 56.1127 53.9586 55.8233C53.3786 55.5339 52.8232 54.9785 52.5338 54.3985C52.2445 53.7702 52.3181 53.0205 52.2465 52.3193C52.9477 52.3909 53.6731 52.4382 54.35 52.5824C54.6885 52.6303 54.8814 53.0169 55.1229 53.2584Z" fill="black"/>
<path d="M60.9187 59.0541C61.5222 59.8029 63.0445 60.6471 61.737 61.858C60.5747 62.972 59.7545 61.5706 58.9333 60.8463C58.7642 60.6772 58.4984 60.5567 58.4503 60.3633C58.2821 59.6139 58.1863 58.8885 58.0423 58.1149C58.7918 58.2348 59.5413 58.3063 60.2908 58.4745C60.5325 58.5226 60.653 58.7884 60.9187 59.0541Z" fill="black"/>
<path d="M24.1754 66.8188C28.7279 62.2664 33.1835 57.8107 37.7118 53.2824C38.6778 54.2484 39.5954 55.1661 40.0542 55.6249C39.9314 57.0518 39.8333 58.0192 39.7594 59.0108C40.7269 58.8643 41.6702 58.6938 42.9763 58.4985C44.8116 60.3338 47.0092 62.5314 49.2792 64.8014C44.7751 69.3054 40.3195 73.7611 35.767 78.3135C33.5453 76.0919 31.3477 73.8943 29.0053 71.5519C31.0152 69.542 33.0251 67.5321 35.0349 65.5222C35.7614 64.7958 36.4879 64.0693 37.2143 63.3429C37.9166 62.6406 38.474 61.7451 37.5319 61.0451C37.1212 60.7313 35.8875 61.0474 35.4032 61.4833C32.9577 63.7356 30.6814 66.1086 28.3325 68.4575C27.945 68.8449 27.5576 69.2324 27.0975 69.6925C26.0832 68.7266 25.1897 67.8331 24.1754 66.8188Z" fill="white"/>
<path d="M28.6887 55.6406C28.3039 54.0451 27.895 52.4738 27.5829 50.854C27.3667 49.8145 27.8514 48.9916 28.9639 48.9417C30.1247 48.8918 30.5588 49.7617 30.3639 50.7777C30.0715 52.4224 29.6098 54.0433 29.2448 55.664C29.0513 55.6642 28.8579 55.6645 28.6887 55.6406Z" fill="white"/>
<path d="M26.4843 58.376C24.912 58.7409 23.3154 59.1784 21.719 59.4708C20.6789 59.6415 19.809 59.2074 19.8347 58.0708C19.8604 56.9342 20.7074 56.522 21.7711 56.714C23.3425 57.0262 24.9138 57.4351 26.4851 57.7957C26.4849 57.9891 26.4846 58.1826 26.4843 58.376Z" fill="white"/>
<path d="M54.1864 30.8673C55.3456 31.978 55.3675 33.6949 54.2536 34.8088C53.1396 35.9227 51.4227 35.9493 50.2877 34.8143C49.201 33.7276 49.179 32.1074 50.2446 30.9936C51.3344 29.8072 53.0272 29.7565 54.1864 30.8673Z" fill="white"/>
<path d="M75.5311 36.7138C74.393 37.852 72.7003 37.8543 71.5894 36.7435C70.4544 35.6085 70.5051 33.9157 71.6674 32.8017C72.7812 31.7361 74.4015 31.7097 75.4881 32.7964C76.6716 33.883 76.6692 35.5757 75.5311 36.7138Z" fill="white"/>
</g>
<defs>
<clipPath id="clip0_126_898">
<rect width="87.7033" height="49.1441" fill="white" transform="translate(0 62.0156) rotate(-45)"/>
</clipPath>
</defs>
</svg>
