<svg width="26" height="25" viewBox="0 0 26 25" fill="none" xmlns="http://www.w3.org/2000/svg">
<path d="M5.67057 24.6666C5.44414 24.6666 5.2374 24.5985 5.04051 24.4621C4.49905 24.0725 4.59749 23.4978 4.64672 23.1471C5.01097 20.9653 5.42445 18.501 5.85762 16.1048C5.897 15.9003 5.86747 15.8516 5.74933 15.7347C4.54827 14.5853 3.32752 13.4165 2.14615 12.2866C1.60469 11.7606 1.06323 11.2444 0.521764 10.7184C0.275645 10.4846 -0.285506 9.93915 0.177197 9.25732C0.364248 8.98459 0.728504 8.76056 1.07307 8.70212C3.25861 8.36121 5.57212 8.02029 8.36803 7.62093C8.56493 7.59171 8.63384 7.54301 8.72245 7.35794C9.47065 5.81896 10.2484 4.25075 10.9966 2.74099C11.2919 2.13709 11.5873 1.54292 11.8826 0.939018C12.0303 0.627325 12.2862 0.111084 12.8671 0.111084H12.8868C13.6744 0.111084 13.9402 0.646806 14.0878 0.929278C14.4226 1.60137 14.7573 2.26371 15.092 2.92606C15.8107 4.34816 16.5589 5.8287 17.2677 7.28002C17.376 7.49431 17.4646 7.56249 17.691 7.59171C18.9019 7.7573 20.1227 7.93263 21.3139 8.09821C22.4756 8.2638 23.6372 8.41965 24.7989 8.58523C25.0943 8.6242 25.7047 8.71186 25.9409 9.33525C26.1772 9.97811 25.7342 10.4067 25.4979 10.6405C25.0057 11.1177 24.5134 11.595 24.0212 12.0723C22.8004 13.2606 21.5403 14.4782 20.29 15.6762C20.1621 15.8029 20.1522 15.8516 20.1719 15.9977C20.4574 17.5756 20.7429 19.1828 21.0185 20.7413C21.1564 21.501 21.2844 22.2705 21.4222 23.0303V23.0595C21.4911 23.4296 21.5895 23.9848 21.0678 24.3842C20.8709 24.54 20.6543 24.6179 20.418 24.6179C20.1128 24.6179 19.8569 24.4816 19.6304 24.3647H19.5911C18.9019 24.014 18.2226 23.6536 17.5335 23.303C16.1257 22.5725 14.6687 21.8224 13.2313 21.0724C13.1231 21.014 13.064 21.0042 13.0344 21.0042C13.0049 21.0042 12.9458 21.014 12.8376 21.0724C11.4987 21.7835 10.1401 22.4945 8.82089 23.1861C8.03331 23.5952 7.24573 24.014 6.45815 24.4231C6.23172 24.5498 5.97576 24.6666 5.67057 24.6666ZM4.15448 11.1859C5.30632 12.2866 6.49753 13.4262 7.64937 14.5658C7.92502 14.8386 8.19083 15.3061 8.13176 15.7152C7.99393 16.7282 7.81673 17.7412 7.63952 18.7347C7.57061 19.1049 7.51154 19.475 7.44263 19.8549C7.34418 20.4101 7.25558 20.975 7.15713 21.5595L7.14728 21.6179C7.54107 21.4133 7.93486 21.2088 8.32866 21.0042C9.61832 20.3322 10.9474 19.6406 12.2469 18.9393C12.5127 18.7932 12.7686 18.725 13.0246 18.725C13.2806 18.725 13.5365 18.7932 13.8122 18.9393C15.1412 19.6406 16.4998 20.3419 17.819 21.014C18.1931 21.2088 18.5672 21.3939 18.9315 21.5887L18.833 21.0042C18.5377 19.3484 18.2325 17.6341 17.9273 15.949C17.819 15.3548 17.9765 14.8873 18.4097 14.4684C19.5025 13.436 20.6051 12.3645 21.6683 11.332C21.9636 11.0496 22.259 10.7573 22.5445 10.4749C22.1999 10.4262 21.8554 10.3775 21.5108 10.3288C19.9356 10.1047 18.4589 9.88071 16.9428 9.69564C16.234 9.60798 15.791 9.28654 15.4858 8.66316C14.8557 7.35794 14.1863 6.04299 13.5464 4.767C13.3593 4.38712 13.1624 4.01699 12.9754 3.63711L12.3847 4.83518C11.7349 6.15013 11.0557 7.50405 10.4059 8.83848C10.2484 9.15018 9.97273 9.57876 9.35251 9.66642C8.12192 9.84175 6.92086 10.0171 5.90685 10.1632C5.18818 10.2703 4.47936 10.3775 3.71146 10.4944L3.4555 10.5333C3.69178 10.7379 3.9182 10.9619 4.15448 11.1859Z" fill="#EC5658"/>
</svg>
