<svg width="210" height="71" viewBox="0 0 210 71" fill="none" xmlns="http://www.w3.org/2000/svg">
<path d="M1.68595 49.7363C2.12562 49.7363 2.56529 49.5793 3.03637 49.3595C5.643 48.2917 7.37029 45.7479 7.37029 42.9842L7.33888 42.3561C9.19179 41.2569 11.61 40.0321 14.7505 38.6817L14.4051 37.8966C11.4216 39.1842 9.03477 40.3462 7.18186 41.414C6.49094 38.2734 4.32399 36.2635 4.32399 33.7511C4.32399 33.1858 4.4182 32.5891 4.70085 31.9296C5.10912 31.1131 5.73722 30.1709 6.58516 29.8568C6.805 29.7626 7.02483 29.7312 7.18186 29.7312C7.96699 29.7312 8.34385 30.4221 8.34385 31.3957C8.34385 32.2436 8.0298 33.3114 7.46451 34.3164L8.21823 34.7561C8.78352 33.7825 9.2232 32.4635 9.2232 31.3329C9.2232 30.2337 8.81493 29.2916 7.80996 28.9461H7.77856C7.55872 28.8833 7.21326 28.8205 6.77359 28.8205C5.32895 28.8205 3.03637 29.4172 1.65454 31.9296C1.08925 32.966 0.869413 33.9709 0.869413 34.9445C0.869413 38.3048 3.50745 41.2255 3.85291 43.5495C0.775197 45.8107 0.209903 47.381 0.178498 48.1347V48.3231C0.178498 48.8256 0.42974 49.2653 0.838007 49.5165C1.15206 49.6735 1.4033 49.7363 1.68595 49.7363ZM1.56033 48.8256C1.46611 48.8256 1.3719 48.8256 1.27768 48.7628C1.12065 48.6686 1.02644 48.5115 1.02644 48.2603C1.02644 47.538 1.84297 46.219 3.91572 44.5859C3.8215 46.1247 2.53389 48.8256 1.56033 48.8256ZM28.0349 49.5793C29.3853 49.5793 30.5473 48.5429 31.3953 47.4438C33.1226 45.2454 35.3209 41.6966 36.2631 38.3677L35.4151 38.1164C34.6614 40.8173 32.8399 44.1776 30.7044 46.8785C29.7308 48.1033 28.8514 48.7 28.0349 48.7H27.8465C26.9985 48.5743 26.5903 47.8834 26.5275 47.0669V46.7528C26.5275 43.6751 29.9192 38.9015 29.9192 34.4106C29.9192 33.1858 29.6994 32.0238 29.0713 30.8932C28.349 29.48 26.9357 28.9147 25.3655 28.9147L24.863 28.9461C22.7274 29.0717 21.2828 30.642 20.058 32.3379C18.5191 34.4734 17.2629 36.766 16.1637 39.1214C17.3257 34.442 18.896 28.8833 20.4977 24.4237C21.063 24.4552 21.6597 24.4866 22.225 24.4866C34.3788 24.4866 44.4284 15.4419 44.8995 8.21866L44.9309 7.68478C44.9309 5.10955 43.7061 2.75416 41.7276 1.68638C40.5342 1.12109 40.0317 1.02687 38.8383 0.932657C36.8598 0.932657 35.2267 1.49795 33.5936 2.34589C20.6233 9.12941 14.0596 31.4899 11.0761 45.8107C11.0133 46.1876 10.9505 46.533 10.9505 46.8785C10.9505 48.3231 11.6728 49.1396 12.4893 49.1396C13.2431 49.1396 14.091 48.4173 14.4365 46.7528C14.7191 45.4338 14.8133 45.057 14.9703 44.209C16.5092 40.2206 18.2679 36.3263 20.7803 32.8403C21.8167 31.3643 23.1043 29.9511 24.9258 29.8254H25.1142C26.3704 29.8254 26.8729 30.8932 26.8729 32.1808C26.8729 32.8089 26.7473 33.5313 26.5275 34.1594C25.3027 37.8966 23.8266 40.9115 23.8266 44.052C23.8266 44.6801 23.8894 45.371 24.0465 46.0305C24.5803 48.4173 26.4332 49.4223 27.7523 49.5793H28.0349ZM22.2564 23.5758C21.7539 23.5758 21.2828 23.5758 20.8117 23.5444C23.7324 15.6931 30.7672 2.03184 39.1209 2.03184H39.278C39.9061 2.06324 40.3772 2.00043 41.3193 2.47151C42.9838 3.35086 44.0202 5.45501 44.0202 7.68478V8.15585C43.6119 14.8452 33.9391 23.5758 22.2564 23.5758ZM36.0432 49.5165C38.7755 49.5165 42.9838 45.9991 45.0251 42.5446C48.4169 42.3247 52.0285 40.9743 54.5409 38.4619L53.9128 37.8338C51.6516 40.0949 48.4797 41.2883 45.5276 41.6024C46.5326 39.6867 47.2863 37.2685 47.2863 35.0073C47.2863 33.5941 46.9723 32.2122 46.2813 31.0188C45.402 29.5428 44.1772 28.9147 42.8582 28.9147C39.435 28.9147 35.4465 32.9346 35.4465 36.7974L35.4779 37.3627C33.4052 40.0321 32.5573 43.2041 32.5573 45.4024C32.5573 46.0933 32.6201 46.6586 32.7771 47.1297C33.0597 47.9777 33.6564 48.7628 34.4416 49.1396C34.4416 49.1396 34.9441 49.3909 35.6664 49.4851L36.0432 49.5165ZM36.1061 48.6686C35.8862 48.6686 35.6664 48.6372 35.4465 48.5429C35.0069 48.3545 34.5044 47.6636 34.5044 46.7843V46.7214C34.5044 45.4652 35.635 42.6702 37.2366 40.5346C38.9325 41.9793 41.759 42.576 43.9574 42.576C42.4499 44.9313 40.3458 46.8785 37.8647 48.1661C37.3937 48.3859 36.7342 48.6686 36.1061 48.6686ZM44.4912 41.6966H44.1144C42.0102 41.6966 39.3408 41.1941 37.7705 39.8437C38.5243 38.9644 39.6862 37.8966 39.8119 37.8338C39.8747 37.771 39.9061 37.6767 39.9061 37.5511C39.9061 36.8288 38.6185 35.2271 37.7391 35.2271C37.5821 35.2271 37.4565 35.2899 37.3309 35.3842C37.2052 35.4784 36.7656 35.8866 36.3573 36.3263C36.6713 32.8717 40.2829 29.7626 42.921 29.7626C43.2978 29.7626 43.6747 29.8254 44.0202 29.9825C45.2764 30.5478 46.407 32.4007 46.407 35.1015C46.407 36.9544 45.8731 39.2156 44.4912 41.6966ZM44.5226 70.558C47.0037 59.2521 51.9343 47.8206 59.1889 37.4255C60.7591 35.1329 64.5592 29.9197 67.3542 29.7626C67.6997 29.7626 68.0451 29.8568 68.2964 30.0453C68.7361 30.3907 68.8617 30.956 68.8617 31.5527C68.8617 31.804 68.8617 32.0238 68.8303 32.2436C68.7675 32.8089 68.6732 33.3428 68.6104 33.4999C67.9509 36.3577 66.0352 39.5925 64.3079 42.5446C60.4451 42.7958 58.1525 44.2718 57.1475 45.5595C56.7393 46.1247 56.5194 46.8157 56.5194 47.538C56.5194 48.4487 56.8963 49.3281 57.6814 49.7992C58.2467 50.1132 58.8748 50.2388 59.4715 50.2388C62.7063 50.2388 66.2865 46.5016 68.1708 43.6751L69.741 43.8008H70.0551C71.7824 43.8008 76.1163 43.2669 78.4403 38.4305L77.6551 38.0536C76.2105 41.0999 73.5725 42.89 69.8981 42.89C69.5212 42.89 69.0815 42.8586 68.6732 42.8272C70.2749 40.252 71.3741 37.5511 71.3741 34.599C71.3741 33.9709 71.3427 33.3114 71.2171 32.6519C71.06 31.6784 70.7146 30.7676 70.0551 30.0453C69.3642 29.323 68.579 28.8833 67.5113 28.8833H67.2914C61.9211 29.1659 53.4731 44.5231 51.1177 49.3281C53.5673 42.9214 56.4566 36.5462 58.7806 32.0866C58.969 31.6784 59.0633 31.3015 59.0633 30.956C59.0633 29.9197 58.2781 29.1973 57.3988 29.1973C56.8021 29.1973 56.1426 29.5428 55.7029 30.3907C49.7987 41.9479 45.1822 56.4571 43.7375 70.1183L43.6747 70.401L44.5226 70.558ZM58.812 49.2339C58.5922 49.2339 58.3723 49.171 58.1525 49.0454C57.6186 48.7314 57.3988 48.1347 57.3988 47.5066C57.3988 47.0041 57.5558 46.4702 57.8385 46.0933C59.0947 44.4289 61.6699 43.7065 63.774 43.4867C61.7327 46.9099 60.1624 49.2339 58.812 49.2339ZM104.004 49.5793C106.831 49.5793 110.317 47.4124 112.484 45.4024C114.305 43.7065 116.817 40.9115 118.325 38.4619L117.571 37.9908C116.095 40.3776 113.645 43.1098 111.887 44.7429C109.594 46.8785 106.391 48.7314 103.973 48.7314C103.345 48.7314 102.779 48.6058 102.277 48.3231C101.366 47.7578 101.083 46.8471 101.083 45.4966C101.083 44.9942 101.115 44.4603 101.178 43.8636C101.24 42.733 101.869 39.6239 102.905 37.3627C104.444 33.9395 107.71 29.8254 110.128 29.8254C110.379 29.8254 110.599 29.8568 110.819 29.9511C111.667 30.2651 112.326 31.1131 112.326 31.961C112.326 32.1808 112.295 32.3693 112.201 32.5577L112.986 32.9346C113.112 32.6205 113.206 32.275 113.206 31.961C113.206 30.7676 112.326 29.5742 111.133 29.1345C110.379 28.8519 109.594 28.7263 108.746 28.7263C107.396 28.7263 105.92 29.1031 104.444 29.9511C100.173 32.3379 98.1313 37.08 98.1313 41.3197C98.1313 44.6801 99.3875 47.695 101.869 49.0768C102.497 49.4223 103.219 49.5793 104.004 49.5793ZM120.68 49.5793C124.575 49.5793 129.003 42.0107 130.667 38.4305L129.882 38.0536C128.5 40.9743 126.176 44.9313 123.695 47.1611C122.533 48.1975 121.591 48.7 120.712 48.7C120.492 48.7 120.303 48.6686 120.084 48.6058C118.67 48.0719 118.168 46.376 118.168 44.8999C118.168 41.2569 121.183 31.2701 122.784 26.7163C123.632 27.0932 124.575 27.2502 125.485 27.2502C126.49 27.2502 127.495 27.0618 128.469 26.8105C137.356 24.3295 142.256 14.7509 142.256 8.31288C142.256 5.29798 141.188 2.97399 138.989 2.34589C138.644 2.25168 138.299 2.18886 137.922 2.18886C136.477 2.18886 135.064 2.97399 133.808 3.72772C122.47 10.5426 116.284 30.5792 116.284 41.1313C116.284 42.6702 116.409 44.0206 116.692 45.0884C117.131 46.8785 118.074 48.857 119.801 49.4537C120.084 49.5479 120.398 49.5793 120.68 49.5793ZM125.517 26.3709C124.606 26.3709 123.789 26.2138 123.067 25.8998C125.611 19.1163 129.631 10.0088 134.718 4.92112C135.598 4.01037 136.823 3.09962 138.047 3.09962C138.299 3.09962 138.518 3.13102 138.738 3.19383C139.775 3.47648 140.654 4.51285 141.062 5.86327C141.251 6.55419 141.376 7.33932 141.376 8.21866C141.376 14.0286 136.98 23.4816 128.249 25.9626C127.275 26.2453 126.365 26.3709 125.517 26.3709ZM130.259 49.5165C132.991 49.5165 137.199 45.9991 139.241 42.5446C142.632 42.3247 146.244 40.9743 148.757 38.4619L148.128 37.8338C145.867 40.0949 142.695 41.2883 139.743 41.6024C140.748 39.6867 141.502 37.2685 141.502 35.0073C141.502 33.5941 141.188 32.2122 140.497 31.0188C139.618 29.5428 138.393 28.9147 137.074 28.9147C133.651 28.9147 129.662 32.9346 129.662 36.7974L129.694 37.3627C127.621 40.0321 126.773 43.2041 126.773 45.4024C126.773 46.0933 126.836 46.6586 126.993 47.1297C127.275 47.9777 127.872 48.7628 128.657 49.1396C128.657 49.1396 129.16 49.3909 129.882 49.4851L130.259 49.5165ZM130.322 48.6686C130.102 48.6686 129.882 48.6372 129.662 48.5429C129.222 48.3545 128.72 47.6636 128.72 46.7843V46.7214C128.72 45.4652 129.851 42.6702 131.452 40.5346C133.148 41.9793 135.975 42.576 138.173 42.576C136.666 44.9313 134.561 46.8785 132.08 48.1661C131.609 48.3859 130.95 48.6686 130.322 48.6686ZM138.707 41.6966H138.33C136.226 41.6966 133.556 41.1941 131.986 39.8437C132.74 38.9644 133.902 37.8966 134.027 37.8338C134.09 37.771 134.122 37.6767 134.122 37.5511C134.122 36.8288 132.834 35.2271 131.955 35.2271C131.798 35.2271 131.672 35.2899 131.546 35.3842C131.421 35.4784 130.981 35.8866 130.573 36.3263C130.887 32.8717 134.499 29.7626 137.137 29.7626C137.513 29.7626 137.89 29.8254 138.236 29.9825C139.492 30.5478 140.623 32.4007 140.623 35.1015C140.623 36.9544 140.089 39.2156 138.707 41.6966ZM150.044 49.5165C151.709 49.5165 153.028 48.5115 154.252 47.2867C156.953 44.6487 159.371 41.6966 161.413 38.4619L160.69 37.9908C158.681 41.1627 156.294 44.0834 153.624 46.6586C152.682 47.6008 151.489 48.6372 150.044 48.6372L149.573 48.6058C148.034 48.3859 147.657 46.8471 147.657 45.0256C147.657 44.0834 147.752 43.0784 147.846 42.1677C148.788 35.7296 150.39 32.8089 159.686 11.1393H178.34V10.26H160.062L162.041 5.64344C162.229 5.17236 162.324 4.73269 162.324 4.35582C162.324 3.25664 161.601 2.56573 160.785 2.56573C160.125 2.56573 159.371 3.03681 158.869 4.13599C158.869 4.13599 157.895 6.42857 156.325 10.26H140.999V11.1393H155.98C148.788 28.9461 146.15 36.3891 146.15 42.6702C146.15 43.7379 146.244 44.7743 146.37 45.8107C146.621 47.5694 147.343 49.1396 149.102 49.4223C149.102 49.4223 149.322 49.4851 149.447 49.4851C149.636 49.5165 149.856 49.5165 150.044 49.5165ZM174.697 49.5793C176.048 49.5793 177.21 48.5429 178.058 47.4438C179.785 45.2454 181.983 41.6966 182.925 38.3677L182.077 38.1164C181.324 40.8173 179.502 44.1776 177.367 46.8785C176.393 48.1033 175.514 48.7 174.697 48.7H174.509C173.661 48.5743 173.253 47.8834 173.19 47.0669V46.7528C173.19 43.6751 176.582 38.9015 176.582 34.4106C176.582 33.1858 176.362 32.0238 175.734 30.8932C175.011 29.48 173.598 28.9147 172.028 28.9147L171.525 28.9461C169.39 29.0717 167.945 30.642 166.72 32.3379C165.181 34.4734 163.925 36.766 162.826 39.1214C163.988 34.442 165.558 28.8833 167.16 24.4237C167.725 24.4552 168.322 24.4866 168.887 24.4866C181.041 24.4866 191.091 15.4419 191.562 8.21866L191.593 7.68478C191.593 5.10955 190.368 2.75416 188.39 1.68638C187.196 1.12109 186.694 1.02687 185.501 0.932657C183.522 0.932657 181.889 1.49795 180.256 2.34589C167.286 9.12941 160.722 31.4899 157.738 45.8107C157.676 46.1876 157.613 46.533 157.613 46.8785C157.613 48.3231 158.335 49.1396 159.152 49.1396C159.905 49.1396 160.753 48.4173 161.099 46.7528C161.381 45.4338 161.476 45.057 161.633 44.209C163.172 40.2206 164.93 36.3263 167.443 32.8403C168.479 31.3643 169.767 29.9511 171.588 29.8254H171.777C173.033 29.8254 173.535 30.8932 173.535 32.1808C173.535 32.8089 173.41 33.5313 173.19 34.1594C171.965 37.8966 170.489 40.9115 170.489 44.052C170.489 44.6801 170.552 45.371 170.709 46.0305C171.243 48.4173 173.096 49.4223 174.415 49.5793H174.697ZM168.919 23.5758C168.416 23.5758 167.945 23.5758 167.474 23.5444C170.395 15.6931 177.429 2.03184 185.783 2.03184H185.94C186.568 2.06324 187.039 2.00043 187.982 2.47151C189.646 3.35086 190.682 5.45501 190.682 7.68478V8.15585C190.274 14.8452 180.601 23.5758 168.919 23.5758ZM187.95 49.6107C192.567 49.6107 196.398 42.9842 198.754 38.4305L197.968 38.0222C195.833 42.1363 192.158 48.7314 187.95 48.7314C187.479 48.7314 187.039 48.6686 186.568 48.5115C184.747 47.7578 184.433 45.371 184.401 43.7065C184.401 42.7016 184.621 40.566 185.218 38.6189C186.003 39.247 186.977 39.5925 187.982 39.5925C190.839 39.5925 193.792 37.0486 194.074 31.7726C194.074 30.799 193.823 29.8883 192.912 29.323C192.284 28.9461 191.562 28.7577 190.777 28.7577C186.631 28.7577 180.978 33.9395 180.978 40.9115C180.978 44.4917 182.203 47.7264 186.286 49.3281C186.851 49.5165 187.416 49.6107 187.95 49.6107ZM187.982 38.6817C187.039 38.6817 186.192 38.3677 185.532 37.7081C186.349 35.3214 187.73 33.1858 189.301 31.3957C189.992 30.6734 190.777 29.8254 191.656 29.8254C191.907 29.8254 192.158 29.9197 192.441 30.0767C193.038 30.4221 193.195 31.0502 193.195 31.7412C192.912 36.4833 190.4 38.6817 187.982 38.6817ZM196.775 49.7363C197.215 49.7363 197.654 49.5793 198.125 49.3595C200.732 48.2917 202.459 45.7479 202.459 42.9842L202.428 42.3561C204.281 41.2569 206.699 40.0321 209.84 38.6817L209.494 37.8966C206.511 39.1842 204.124 40.3462 202.271 41.414C201.58 38.2734 199.413 36.2635 199.413 33.7511C199.413 33.1858 199.507 32.5891 199.79 31.9296C200.198 31.1131 200.826 30.1709 201.674 29.8568C201.894 29.7626 202.114 29.7312 202.271 29.7312C203.056 29.7312 203.433 30.4221 203.433 31.3957C203.433 32.2436 203.119 33.3114 202.554 34.3164L203.307 34.7561C203.873 33.7825 204.312 32.4635 204.312 31.3329C204.312 30.2337 203.904 29.2916 202.899 28.9461H202.868C202.648 28.8833 202.302 28.8205 201.863 28.8205C200.418 28.8205 198.125 29.4172 196.744 31.9296C196.178 32.966 195.959 33.9709 195.959 34.9445C195.959 38.3048 198.597 41.2255 198.942 43.5495C195.864 45.8107 195.299 47.381 195.268 48.1347V48.3231C195.268 48.8256 195.519 49.2653 195.927 49.5165C196.241 49.6735 196.492 49.7363 196.775 49.7363ZM196.649 48.8256C196.555 48.8256 196.461 48.8256 196.367 48.7628C196.21 48.6686 196.116 48.5115 196.116 48.2603C196.116 47.538 196.932 46.219 199.005 44.5859C198.911 46.1247 197.623 48.8256 196.649 48.8256Z" fill="white"/>
</svg>
