<svg width="210" height="71" viewBox="0 0 210 71" fill="none" xmlns="http://www.w3.org/2000/svg">
<path d="M1.68595 49.2363C2.12562 49.2363 2.56529 49.0793 3.03637 48.8595C5.643 47.7917 7.37029 45.2479 7.37029 42.4842L7.33888 41.8561C9.19179 40.7569 11.61 39.5321 14.7505 38.1817L14.4051 37.3966C11.4216 38.6842 9.03477 39.8462 7.18186 40.914C6.49094 37.7734 4.32399 35.7635 4.32399 33.2511C4.32399 32.6858 4.4182 32.0891 4.70085 31.4296C5.10912 30.6131 5.73722 29.6709 6.58516 29.3568C6.805 29.2626 7.02483 29.2312 7.18186 29.2312C7.96699 29.2312 8.34385 29.9221 8.34385 30.8957C8.34385 31.7436 8.0298 32.8114 7.46451 33.8164L8.21823 34.2561C8.78352 33.2825 9.2232 31.9635 9.2232 30.8329C9.2232 29.7337 8.81493 28.7916 7.80996 28.4461H7.77856C7.55872 28.3833 7.21326 28.3205 6.77359 28.3205C5.32895 28.3205 3.03637 28.9172 1.65454 31.4296C1.08925 32.466 0.869413 33.4709 0.869413 34.4445C0.869413 37.8048 3.50745 40.7255 3.85291 43.0495C0.775197 45.3107 0.209903 46.881 0.178498 47.6347V47.8231C0.178498 48.3256 0.42974 48.7653 0.838007 49.0165C1.15206 49.1735 1.4033 49.2363 1.68595 49.2363ZM1.56033 48.3256C1.46611 48.3256 1.3719 48.3256 1.27768 48.2628C1.12065 48.1686 1.02644 48.0115 1.02644 47.7603C1.02644 47.038 1.84297 45.719 3.91572 44.0859C3.8215 45.6247 2.53389 48.3256 1.56033 48.3256ZM28.0349 49.0793C29.3853 49.0793 30.5473 48.0429 31.3953 46.9438C33.1226 44.7454 35.3209 41.1966 36.2631 37.8677L35.4151 37.6164C34.6614 40.3173 32.8399 43.6776 30.7044 46.3785C29.7308 47.6033 28.8514 48.2 28.0349 48.2H27.8465C26.9985 48.0743 26.5903 47.3834 26.5275 46.5669V46.2528C26.5275 43.1751 29.9192 38.4015 29.9192 33.9106C29.9192 32.6858 29.6994 31.5238 29.0713 30.3932C28.349 28.98 26.9357 28.4147 25.3655 28.4147L24.863 28.4461C22.7274 28.5717 21.2828 30.142 20.058 31.8379C18.5191 33.9734 17.2629 36.266 16.1637 38.6214C17.3257 33.942 18.896 28.3833 20.4977 23.9237C21.063 23.9552 21.6597 23.9866 22.225 23.9866C34.3788 23.9866 44.4284 14.9419 44.8995 7.71866L44.9309 7.18478C44.9309 4.60955 43.7061 2.25416 41.7276 1.18638C40.5342 0.621088 40.0317 0.526872 38.8383 0.432657C36.8598 0.432657 35.2267 0.99795 33.5936 1.84589C20.6233 8.62941 14.0596 30.9899 11.0761 45.3107C11.0133 45.6876 10.9505 46.033 10.9505 46.3785C10.9505 47.8231 11.6728 48.6396 12.4893 48.6396C13.2431 48.6396 14.091 47.9173 14.4365 46.2528C14.7191 44.9338 14.8133 44.557 14.9703 43.709C16.5092 39.7206 18.2679 35.8263 20.7803 32.3403C21.8167 30.8643 23.1043 29.4511 24.9258 29.3254H25.1142C26.3704 29.3254 26.8729 30.3932 26.8729 31.6808C26.8729 32.3089 26.7473 33.0313 26.5275 33.6594C25.3027 37.3966 23.8266 40.4115 23.8266 43.552C23.8266 44.1801 23.8894 44.871 24.0465 45.5305C24.5803 47.9173 26.4332 48.9223 27.7523 49.0793H28.0349ZM22.2564 23.0758C21.7539 23.0758 21.2828 23.0758 20.8117 23.0444C23.7324 15.1931 30.7672 1.53184 39.1209 1.53184H39.278C39.9061 1.56324 40.3772 1.50043 41.3193 1.97151C42.9838 2.85086 44.0202 4.95501 44.0202 7.18478V7.65585C43.6119 14.3452 33.9391 23.0758 22.2564 23.0758ZM36.0432 49.0165C38.7755 49.0165 42.9838 45.4991 45.0251 42.0446C48.4169 41.8247 52.0285 40.4743 54.5409 37.9619L53.9128 37.3338C51.6516 39.5949 48.4797 40.7883 45.5276 41.1024C46.5326 39.1867 47.2863 36.7685 47.2863 34.5073C47.2863 33.0941 46.9723 31.7122 46.2813 30.5188C45.402 29.0428 44.1772 28.4147 42.8582 28.4147C39.435 28.4147 35.4465 32.4346 35.4465 36.2974L35.4779 36.8627C33.4052 39.5321 32.5573 42.7041 32.5573 44.9024C32.5573 45.5933 32.6201 46.1586 32.7771 46.6297C33.0597 47.4777 33.6564 48.2628 34.4416 48.6396C34.4416 48.6396 34.9441 48.8909 35.6664 48.9851L36.0432 49.0165ZM36.1061 48.1686C35.8862 48.1686 35.6664 48.1372 35.4465 48.0429C35.0069 47.8545 34.5044 47.1636 34.5044 46.2843V46.2214C34.5044 44.9652 35.635 42.1702 37.2366 40.0346C38.9325 41.4793 41.759 42.076 43.9574 42.076C42.4499 44.4313 40.3458 46.3785 37.8647 47.6661C37.3937 47.8859 36.7342 48.1686 36.1061 48.1686ZM44.4912 41.1966H44.1144C42.0102 41.1966 39.3408 40.6941 37.7705 39.3437C38.5243 38.4644 39.6862 37.3966 39.8119 37.3338C39.8747 37.271 39.9061 37.1767 39.9061 37.0511C39.9061 36.3288 38.6185 34.7271 37.7391 34.7271C37.5821 34.7271 37.4565 34.7899 37.3309 34.8842C37.2052 34.9784 36.7656 35.3866 36.3573 35.8263C36.6713 32.3717 40.2829 29.2626 42.921 29.2626C43.2978 29.2626 43.6747 29.3254 44.0202 29.4825C45.2764 30.0478 46.407 31.9007 46.407 34.6015C46.407 36.4544 45.8731 38.7156 44.4912 41.1966ZM44.5226 70.058C47.0037 58.7521 51.9343 47.3206 59.1889 36.9255C60.7591 34.6329 64.5592 29.4197 67.3542 29.2626C67.6997 29.2626 68.0451 29.3568 68.2964 29.5453C68.7361 29.8907 68.8617 30.456 68.8617 31.0527C68.8617 31.304 68.8617 31.5238 68.8303 31.7436C68.7675 32.3089 68.6732 32.8428 68.6104 32.9999C67.9509 35.8577 66.0352 39.0925 64.3079 42.0446C60.4451 42.2958 58.1525 43.7718 57.1475 45.0595C56.7393 45.6247 56.5194 46.3157 56.5194 47.038C56.5194 47.9487 56.8963 48.8281 57.6814 49.2992C58.2467 49.6132 58.8748 49.7388 59.4715 49.7388C62.7063 49.7388 66.2865 46.0016 68.1708 43.1751L69.741 43.3008H70.0551C71.7824 43.3008 76.1163 42.7669 78.4403 37.9305L77.6551 37.5536C76.2105 40.5999 73.5725 42.39 69.8981 42.39C69.5212 42.39 69.0815 42.3586 68.6732 42.3272C70.2749 39.752 71.3741 37.0511 71.3741 34.099C71.3741 33.4709 71.3427 32.8114 71.2171 32.1519C71.06 31.1784 70.7146 30.2676 70.0551 29.5453C69.3642 28.823 68.579 28.3833 67.5113 28.3833H67.2914C61.9211 28.6659 53.4731 44.0231 51.1177 48.8281C53.5673 42.4214 56.4566 36.0462 58.7806 31.5866C58.969 31.1784 59.0633 30.8015 59.0633 30.456C59.0633 29.4197 58.2781 28.6973 57.3988 28.6973C56.8021 28.6973 56.1426 29.0428 55.7029 29.8907C49.7987 41.4479 45.1822 55.9571 43.7375 69.6183L43.6747 69.901L44.5226 70.058ZM58.812 48.7339C58.5922 48.7339 58.3723 48.671 58.1525 48.5454C57.6186 48.2314 57.3988 47.6347 57.3988 47.0066C57.3988 46.5041 57.5558 45.9702 57.8385 45.5933C59.0947 43.9289 61.6699 43.2065 63.774 42.9867C61.7327 46.4099 60.1624 48.7339 58.812 48.7339ZM104.004 49.0793C106.831 49.0793 110.317 46.9124 112.484 44.9024C114.305 43.2065 116.817 40.4115 118.325 37.9619L117.571 37.4908C116.095 39.8776 113.645 42.6098 111.887 44.2429C109.594 46.3785 106.391 48.2314 103.973 48.2314C103.345 48.2314 102.779 48.1058 102.277 47.8231C101.366 47.2578 101.083 46.3471 101.083 44.9966C101.083 44.4942 101.115 43.9603 101.178 43.3636C101.24 42.233 101.869 39.1239 102.905 36.8627C104.444 33.4395 107.71 29.3254 110.128 29.3254C110.379 29.3254 110.599 29.3568 110.819 29.4511C111.667 29.7651 112.326 30.6131 112.326 31.461C112.326 31.6808 112.295 31.8693 112.201 32.0577L112.986 32.4346C113.112 32.1205 113.206 31.775 113.206 31.461C113.206 30.2676 112.326 29.0742 111.133 28.6345C110.379 28.3519 109.594 28.2263 108.746 28.2263C107.396 28.2263 105.92 28.6031 104.444 29.4511C100.173 31.8379 98.1313 36.58 98.1313 40.8197C98.1313 44.1801 99.3875 47.195 101.869 48.5768C102.497 48.9223 103.219 49.0793 104.004 49.0793ZM120.68 49.0793C124.575 49.0793 129.003 41.5107 130.667 37.9305L129.882 37.5536C128.5 40.4743 126.176 44.4313 123.695 46.6611C122.533 47.6975 121.591 48.2 120.712 48.2C120.492 48.2 120.303 48.1686 120.084 48.1058C118.67 47.5719 118.168 45.876 118.168 44.3999C118.168 40.7569 121.183 30.7701 122.784 26.2163C123.632 26.5932 124.575 26.7502 125.485 26.7502C126.49 26.7502 127.495 26.5618 128.469 26.3105C137.356 23.8295 142.256 14.2509 142.256 7.81288C142.256 4.79798 141.188 2.47399 138.989 1.84589C138.644 1.75168 138.299 1.68886 137.922 1.68886C136.477 1.68886 135.064 2.47399 133.808 3.22772C122.47 10.0426 116.284 30.0792 116.284 40.6313C116.284 42.1702 116.409 43.5206 116.692 44.5884C117.131 46.3785 118.074 48.357 119.801 48.9537C120.084 49.0479 120.398 49.0793 120.68 49.0793ZM125.517 25.8709C124.606 25.8709 123.789 25.7138 123.067 25.3998C125.611 18.6163 129.631 9.50876 134.718 4.42112C135.598 3.51037 136.823 2.59962 138.047 2.59962C138.299 2.59962 138.518 2.63102 138.738 2.69383C139.775 2.97648 140.654 4.01285 141.062 5.36327C141.251 6.05419 141.376 6.83932 141.376 7.71866C141.376 13.5286 136.98 22.9816 128.249 25.4626C127.275 25.7453 126.365 25.8709 125.517 25.8709ZM130.259 49.0165C132.991 49.0165 137.199 45.4991 139.241 42.0446C142.632 41.8247 146.244 40.4743 148.757 37.9619L148.128 37.3338C145.867 39.5949 142.695 40.7883 139.743 41.1024C140.748 39.1867 141.502 36.7685 141.502 34.5073C141.502 33.0941 141.188 31.7122 140.497 30.5188C139.618 29.0428 138.393 28.4147 137.074 28.4147C133.651 28.4147 129.662 32.4346 129.662 36.2974L129.694 36.8627C127.621 39.5321 126.773 42.7041 126.773 44.9024C126.773 45.5933 126.836 46.1586 126.993 46.6297C127.275 47.4777 127.872 48.2628 128.657 48.6396C128.657 48.6396 129.16 48.8909 129.882 48.9851L130.259 49.0165ZM130.322 48.1686C130.102 48.1686 129.882 48.1372 129.662 48.0429C129.222 47.8545 128.72 47.1636 128.72 46.2843V46.2214C128.72 44.9652 129.851 42.1702 131.452 40.0346C133.148 41.4793 135.975 42.076 138.173 42.076C136.666 44.4313 134.561 46.3785 132.08 47.6661C131.609 47.8859 130.95 48.1686 130.322 48.1686ZM138.707 41.1966H138.33C136.226 41.1966 133.556 40.6941 131.986 39.3437C132.74 38.4644 133.902 37.3966 134.027 37.3338C134.09 37.271 134.122 37.1767 134.122 37.0511C134.122 36.3288 132.834 34.7271 131.955 34.7271C131.798 34.7271 131.672 34.7899 131.546 34.8842C131.421 34.9784 130.981 35.3866 130.573 35.8263C130.887 32.3717 134.499 29.2626 137.137 29.2626C137.513 29.2626 137.89 29.3254 138.236 29.4825C139.492 30.0478 140.623 31.9007 140.623 34.6015C140.623 36.4544 140.089 38.7156 138.707 41.1966ZM150.044 49.0165C151.709 49.0165 153.028 48.0115 154.252 46.7867C156.953 44.1487 159.371 41.1966 161.413 37.9619L160.69 37.4908C158.681 40.6627 156.294 43.5834 153.624 46.1586C152.682 47.1008 151.489 48.1372 150.044 48.1372L149.573 48.1058C148.034 47.8859 147.657 46.3471 147.657 44.5256C147.657 43.5834 147.752 42.5784 147.846 41.6677C148.788 35.2296 150.39 32.3089 159.686 10.6393H178.34V9.76H160.062L162.041 5.14344C162.229 4.67236 162.324 4.23269 162.324 3.85582C162.324 2.75664 161.601 2.06573 160.785 2.06573C160.125 2.06573 159.371 2.53681 158.869 3.63599C158.869 3.63599 157.895 5.92857 156.325 9.76H140.999V10.6393H155.98C148.788 28.4461 146.15 35.8891 146.15 42.1702C146.15 43.2379 146.244 44.2743 146.37 45.3107C146.621 47.0694 147.343 48.6396 149.102 48.9223C149.102 48.9223 149.322 48.9851 149.447 48.9851C149.636 49.0165 149.856 49.0165 150.044 49.0165ZM174.697 49.0793C176.048 49.0793 177.21 48.0429 178.058 46.9438C179.785 44.7454 181.983 41.1966 182.925 37.8677L182.077 37.6164C181.324 40.3173 179.502 43.6776 177.367 46.3785C176.393 47.6033 175.514 48.2 174.697 48.2H174.509C173.661 48.0743 173.253 47.3834 173.19 46.5669V46.2528C173.19 43.1751 176.582 38.4015 176.582 33.9106C176.582 32.6858 176.362 31.5238 175.734 30.3932C175.011 28.98 173.598 28.4147 172.028 28.4147L171.525 28.4461C169.39 28.5717 167.945 30.142 166.72 31.8379C165.181 33.9734 163.925 36.266 162.826 38.6214C163.988 33.942 165.558 28.3833 167.16 23.9237C167.725 23.9552 168.322 23.9866 168.887 23.9866C181.041 23.9866 191.091 14.9419 191.562 7.71866L191.593 7.18478C191.593 4.60955 190.368 2.25416 188.39 1.18638C187.196 0.621088 186.694 0.526872 185.501 0.432657C183.522 0.432657 181.889 0.99795 180.256 1.84589C167.286 8.62941 160.722 30.9899 157.738 45.3107C157.676 45.6876 157.613 46.033 157.613 46.3785C157.613 47.8231 158.335 48.6396 159.152 48.6396C159.905 48.6396 160.753 47.9173 161.099 46.2528C161.381 44.9338 161.476 44.557 161.633 43.709C163.172 39.7206 164.93 35.8263 167.443 32.3403C168.479 30.8643 169.767 29.4511 171.588 29.3254H171.777C173.033 29.3254 173.535 30.3932 173.535 31.6808C173.535 32.3089 173.41 33.0313 173.19 33.6594C171.965 37.3966 170.489 40.4115 170.489 43.552C170.489 44.1801 170.552 44.871 170.709 45.5305C171.243 47.9173 173.096 48.9223 174.415 49.0793H174.697ZM168.919 23.0758C168.416 23.0758 167.945 23.0758 167.474 23.0444C170.395 15.1931 177.429 1.53184 185.783 1.53184H185.94C186.568 1.56324 187.039 1.50043 187.982 1.97151C189.646 2.85086 190.682 4.95501 190.682 7.18478V7.65585C190.274 14.3452 180.601 23.0758 168.919 23.0758ZM187.95 49.1107C192.567 49.1107 196.398 42.4842 198.754 37.9305L197.968 37.5222C195.833 41.6363 192.158 48.2314 187.95 48.2314C187.479 48.2314 187.039 48.1686 186.568 48.0115C184.747 47.2578 184.433 44.871 184.401 43.2065C184.401 42.2016 184.621 40.066 185.218 38.1189C186.003 38.747 186.977 39.0925 187.982 39.0925C190.839 39.0925 193.792 36.5486 194.074 31.2726C194.074 30.299 193.823 29.3883 192.912 28.823C192.284 28.4461 191.562 28.2577 190.777 28.2577C186.631 28.2577 180.978 33.4395 180.978 40.4115C180.978 43.9917 182.203 47.2264 186.286 48.8281C186.851 49.0165 187.416 49.1107 187.95 49.1107ZM187.982 38.1817C187.039 38.1817 186.192 37.8677 185.532 37.2081C186.349 34.8214 187.73 32.6858 189.301 30.8957C189.992 30.1734 190.777 29.3254 191.656 29.3254C191.907 29.3254 192.158 29.4197 192.441 29.5767C193.038 29.9221 193.195 30.5502 193.195 31.2412C192.912 35.9833 190.4 38.1817 187.982 38.1817ZM196.775 49.2363C197.215 49.2363 197.654 49.0793 198.125 48.8595C200.732 47.7917 202.459 45.2479 202.459 42.4842L202.428 41.8561C204.281 40.7569 206.699 39.5321 209.84 38.1817L209.494 37.3966C206.511 38.6842 204.124 39.8462 202.271 40.914C201.58 37.7734 199.413 35.7635 199.413 33.2511C199.413 32.6858 199.507 32.0891 199.79 31.4296C200.198 30.6131 200.826 29.6709 201.674 29.3568C201.894 29.2626 202.114 29.2312 202.271 29.2312C203.056 29.2312 203.433 29.9221 203.433 30.8957C203.433 31.7436 203.119 32.8114 202.554 33.8164L203.307 34.2561C203.873 33.2825 204.312 31.9635 204.312 30.8329C204.312 29.7337 203.904 28.7916 202.899 28.4461H202.868C202.648 28.3833 202.302 28.3205 201.863 28.3205C200.418 28.3205 198.125 28.9172 196.744 31.4296C196.178 32.466 195.959 33.4709 195.959 34.4445C195.959 37.8048 198.597 40.7255 198.942 43.0495C195.864 45.3107 195.299 46.881 195.268 47.6347V47.8231C195.268 48.3256 195.519 48.7653 195.927 49.0165C196.241 49.1735 196.492 49.2363 196.775 49.2363ZM196.649 48.3256C196.555 48.3256 196.461 48.3256 196.367 48.2628C196.21 48.1686 196.116 48.0115 196.116 47.7603C196.116 47.038 196.932 45.719 199.005 44.0859C198.911 45.6247 197.623 48.3256 196.649 48.3256Z" fill="black"/>
</svg>
