<svg width="687" height="229" viewBox="0 0 687 229" fill="none" xmlns="http://www.w3.org/2000/svg">
<path d="M4.97122 159.947C6.41151 159.947 7.8518 159.432 9.39497 158.712C17.9338 155.214 23.5921 146.881 23.5921 137.828L23.4892 135.77C29.559 132.17 37.4806 128.157 47.7684 123.734L46.6368 121.162C36.8634 125.38 29.0446 129.186 22.9748 132.684C20.7115 122.396 13.613 115.812 13.613 107.582C13.613 105.73 13.9216 103.775 14.8475 101.615C16.1849 98.9402 18.2425 95.8538 21.0202 94.8251C21.7403 94.5164 22.4605 94.4135 22.9748 94.4135C25.5468 94.4135 26.7813 96.6769 26.7813 99.8661C26.7813 102.644 25.7526 106.142 23.9008 109.434L26.3698 110.874C28.2216 107.685 29.6619 103.364 29.6619 99.6603C29.6619 96.0596 28.3245 92.9732 25.0324 91.8416H24.9295C24.2094 91.6358 23.0777 91.4301 21.6374 91.4301C16.9051 91.4301 9.39497 93.3848 4.86834 101.615C3.01654 105.01 2.2964 108.302 2.2964 111.491C2.2964 122.499 10.9381 132.067 12.0698 139.68C1.98776 147.087 0.135961 152.231 0.0330831 154.7V155.317C0.0330831 156.963 0.856106 158.404 2.19352 159.227C3.2223 159.741 4.04532 159.947 4.97122 159.947ZM4.55971 156.963C4.25108 156.963 3.94244 156.963 3.63381 156.758C3.11942 156.449 2.81079 155.935 2.81079 155.111C2.81079 152.745 5.48561 148.424 12.2756 143.075C11.9669 148.116 7.74892 156.963 4.55971 156.963ZM91.2858 159.432C95.7095 159.432 99.516 156.037 102.294 152.437C107.952 145.235 115.153 133.61 118.24 122.705L115.462 121.882C112.993 130.729 107.026 141.737 100.03 150.585C96.8412 154.597 93.9606 156.552 91.2858 156.552H90.6685C87.8908 156.14 86.5534 153.877 86.3476 151.202V150.173C86.3476 140.091 97.4584 124.454 97.4584 109.742C97.4584 105.73 96.7383 101.924 94.6807 98.22C92.3145 93.5905 87.685 91.7387 82.5411 91.7387L80.8951 91.8416C73.8994 92.2531 69.167 97.397 65.1548 102.952C60.1138 109.948 55.9986 117.458 52.3979 125.174C56.2044 109.845 61.3483 91.6358 66.5951 77.0272C68.4469 77.1301 70.4016 77.2329 72.2534 77.2329C112.067 77.2329 144.988 47.6041 146.531 23.9422L146.634 22.1933C146.634 13.7573 142.622 6.04144 136.141 2.54359C132.231 0.691792 130.585 0.383159 126.676 0.0745249C120.194 0.0745249 114.845 1.92633 109.495 4.70403C67.0066 26.9257 45.5051 100.175 35.7317 147.087C35.526 148.322 35.3202 149.453 35.3202 150.585C35.3202 155.317 37.6864 157.992 40.3612 157.992C42.8303 157.992 45.608 155.626 46.7396 150.173C47.6655 145.852 47.9742 144.618 48.4886 141.84C53.5296 128.775 59.2907 116.018 67.521 104.598C70.9159 99.7632 75.1339 95.1337 81.1009 94.7222H81.7181C85.8332 94.7222 87.4793 98.22 87.4793 102.438C87.4793 104.496 87.0678 106.862 86.3476 108.919C82.3354 121.162 77.5001 131.038 77.5001 141.326C77.5001 143.383 77.7059 145.647 78.2203 147.807C79.9692 155.626 86.039 158.918 90.3599 159.432H91.2858ZM72.3562 74.2495C70.7102 74.2495 69.167 74.2495 67.6238 74.1466C77.1915 48.4271 100.236 3.67525 127.602 3.67525H128.116C130.174 3.77813 131.717 3.57237 134.803 5.11554C140.256 7.99612 143.651 14.8889 143.651 22.1933V23.7364C142.313 45.6494 110.627 74.2495 72.3562 74.2495ZM117.52 159.227C126.47 159.227 140.256 147.704 146.943 136.388C158.054 135.668 169.884 131.244 178.115 123.014L176.057 120.956C168.65 128.363 158.259 132.273 148.589 133.301C151.881 127.026 154.35 119.104 154.35 111.697C154.35 107.068 153.321 102.541 151.058 98.6315C148.177 93.7963 144.165 91.7387 139.844 91.7387C128.63 91.7387 115.565 104.907 115.565 117.561L115.668 119.413C108.878 128.157 106.1 138.548 106.1 145.75C106.1 148.013 106.306 149.865 106.82 151.408C107.746 154.186 109.701 156.758 112.273 157.992C112.273 157.992 113.919 158.815 116.285 159.124L117.52 159.227ZM117.725 156.449C117.005 156.449 116.285 156.346 115.565 156.037C114.125 155.42 112.479 153.157 112.479 150.276V150.07C112.479 145.955 116.182 136.799 121.429 129.804C126.984 134.536 136.243 136.491 143.445 136.491C138.507 144.206 131.614 150.585 123.487 154.803C121.943 155.523 119.783 156.449 117.725 156.449ZM145.194 133.61H143.959C137.066 133.61 128.322 131.964 123.178 127.54C125.647 124.66 129.453 121.162 129.865 120.956C130.071 120.75 130.174 120.442 130.174 120.03C130.174 117.664 125.956 112.417 123.075 112.417C122.561 112.417 122.149 112.623 121.738 112.932C121.326 113.24 119.886 114.578 118.548 116.018C119.577 104.701 131.408 94.5164 140.05 94.5164C141.284 94.5164 142.519 94.7222 143.651 95.2366C147.766 97.0884 151.469 103.158 151.469 112.006C151.469 118.075 149.72 125.483 145.194 133.61ZM145.297 228.155C153.424 191.119 169.576 153.671 193.341 119.619C198.485 112.109 210.933 95.0308 220.089 94.5164C221.221 94.5164 222.352 94.8251 223.175 95.4423C224.615 96.574 225.027 98.4258 225.027 100.38C225.027 101.203 225.027 101.924 224.924 102.644C224.718 104.496 224.41 106.244 224.204 106.759C222.044 116.121 215.768 126.717 210.11 136.388C197.456 137.211 189.946 142.046 186.654 146.264C185.316 148.116 184.596 150.379 184.596 152.745C184.596 155.729 185.831 158.609 188.402 160.153C190.254 161.181 192.312 161.593 194.267 161.593C204.863 161.593 216.591 149.35 222.764 140.091L227.908 140.503H228.936C234.595 140.503 248.792 138.754 256.405 122.911L253.833 121.676C249.1 131.655 240.459 137.519 228.422 137.519C227.187 137.519 225.747 137.416 224.41 137.314C229.657 128.878 233.257 120.03 233.257 110.36C233.257 108.302 233.154 106.142 232.743 103.981C232.228 100.792 231.097 97.8085 228.936 95.4423C226.673 93.0761 224.101 91.6358 220.603 91.6358H219.883C202.291 92.5617 174.617 142.869 166.901 158.609C174.925 137.622 184.39 116.738 192.003 102.129C192.62 100.792 192.929 99.5574 192.929 98.4258C192.929 95.0308 190.357 92.6646 187.477 92.6646C185.522 92.6646 183.361 93.7963 181.921 96.574C162.58 134.433 147.457 181.963 142.725 226.714L142.519 227.64L145.297 228.155ZM192.106 158.301C191.386 158.301 190.666 158.095 189.946 157.683C188.197 156.655 187.477 154.7 187.477 152.642C187.477 150.996 187.991 149.247 188.917 148.013C193.032 142.56 201.468 140.194 208.361 139.474C201.674 150.688 196.53 158.301 192.106 158.301ZM340.147 159.432C349.406 159.432 360.826 152.334 367.924 145.75C373.891 140.194 382.122 131.038 387.06 123.014L384.591 121.47C379.755 129.289 371.731 138.24 365.97 143.589C358.46 150.585 347.966 156.655 340.044 156.655C337.987 156.655 336.135 156.243 334.489 155.317C331.506 153.465 330.58 150.482 330.58 146.058C330.58 144.412 330.683 142.663 330.888 140.709C331.094 137.005 333.152 126.82 336.547 119.413C341.588 108.199 352.287 94.7222 360.209 94.7222C361.032 94.7222 361.752 94.8251 362.472 95.1337C365.25 96.1625 367.41 98.9402 367.41 101.718C367.41 102.438 367.307 103.055 366.998 103.673L369.57 104.907C369.982 103.878 370.291 102.747 370.291 101.718C370.291 97.8085 367.41 93.8991 363.501 92.4589C361.032 91.533 358.46 91.1214 355.682 91.1214C351.258 91.1214 346.423 92.356 341.588 95.1337C327.596 102.952 320.909 118.487 320.909 132.375C320.909 143.383 325.024 153.26 333.152 157.786C335.209 158.918 337.575 159.432 340.147 159.432ZM394.776 159.432C407.532 159.432 422.038 134.639 427.491 122.911L424.919 121.676C420.392 131.244 412.779 144.206 404.652 151.511C400.845 154.906 397.759 156.552 394.878 156.552C394.158 156.552 393.541 156.449 392.821 156.243C388.191 154.494 386.545 148.939 386.545 144.104C386.545 132.17 396.422 99.4546 401.668 84.5373C404.446 85.7718 407.532 86.2862 410.516 86.2862C413.808 86.2862 417.1 85.6689 420.289 84.8459C449.404 76.7185 465.453 45.3408 465.453 24.2508C465.453 14.3745 461.955 6.76159 454.753 4.70403C453.622 4.3954 452.49 4.18964 451.255 4.18964C446.523 4.18964 441.894 6.76159 437.778 9.23066C400.64 31.5552 380.373 97.1912 380.373 131.758C380.373 136.799 380.784 141.223 381.71 144.721C383.15 150.585 386.237 157.066 391.895 159.021C392.821 159.329 393.85 159.432 394.776 159.432ZM410.619 83.4056C407.635 83.4056 404.96 82.8912 402.594 81.8624C410.927 59.6408 424.096 29.8062 440.762 13.14C443.643 10.1566 447.655 7.1731 451.667 7.1731C452.49 7.1731 453.21 7.27598 453.93 7.48173C457.325 8.40763 460.206 11.8026 461.543 16.2264C462.161 18.4897 462.572 21.0616 462.572 23.9422C462.572 42.9746 448.169 73.9408 419.569 82.0682C416.38 82.9941 413.396 83.4056 410.619 83.4056ZM426.153 159.227C435.104 159.227 448.889 147.704 455.576 136.388C466.687 135.668 478.518 131.244 486.748 123.014L484.691 120.956C477.284 128.363 466.893 132.273 457.222 133.301C460.514 127.026 462.984 119.104 462.984 111.697C462.984 107.068 461.955 102.541 459.691 98.6315C456.811 93.7963 452.799 91.7387 448.478 91.7387C437.264 91.7387 424.199 104.907 424.199 117.561L424.301 119.413C417.512 128.157 414.734 138.548 414.734 145.75C414.734 148.013 414.94 149.865 415.454 151.408C416.38 154.186 418.335 156.758 420.906 157.992C420.906 157.992 422.553 158.815 424.919 159.124L426.153 159.227ZM426.359 156.449C425.639 156.449 424.919 156.346 424.199 156.037C422.758 155.42 421.112 153.157 421.112 150.276V150.07C421.112 145.955 424.816 136.799 430.063 129.804C435.618 134.536 444.877 136.491 452.078 136.491C447.14 144.206 440.248 150.585 432.12 154.803C430.577 155.523 428.417 156.449 426.359 156.449ZM453.827 133.61H452.593C445.7 133.61 436.955 131.964 431.812 127.54C434.281 124.66 438.087 121.162 438.499 120.956C438.704 120.75 438.807 120.442 438.807 120.03C438.807 117.664 434.589 112.417 431.709 112.417C431.194 112.417 430.783 112.623 430.371 112.932C429.96 113.24 428.519 114.578 427.182 116.018C428.211 104.701 440.042 94.5164 448.684 94.5164C449.918 94.5164 451.153 94.7222 452.284 95.2366C456.399 97.0884 460.103 103.158 460.103 112.006C460.103 118.075 458.354 125.483 453.827 133.61ZM490.966 159.227C496.419 159.227 500.74 155.935 504.752 151.922C513.599 143.281 521.521 133.61 528.208 123.014L525.842 121.47C519.258 131.861 511.439 141.429 502.694 149.865C499.608 152.951 495.699 156.346 490.966 156.346L489.423 156.243C484.382 155.523 483.148 150.482 483.148 144.515C483.148 141.429 483.456 138.137 483.765 135.153C486.851 114.063 492.098 104.496 522.55 33.5098H583.659V30.6293H523.784L530.266 15.5062C530.883 13.963 531.192 12.5227 531.192 11.2882C531.192 7.68749 528.825 5.42417 526.151 5.42417C523.99 5.42417 521.521 6.96734 519.875 10.5681C519.875 10.5681 516.686 18.0782 511.542 30.6293H461.337V33.5098H510.41C486.851 91.8416 478.209 116.224 478.209 136.799C478.209 140.297 478.518 143.692 478.93 147.087C479.753 152.848 482.119 157.992 487.88 158.918C487.88 158.918 488.6 159.124 489.012 159.124C489.629 159.227 490.349 159.227 490.966 159.227ZM571.725 159.432C576.149 159.432 579.956 156.037 582.733 152.437C588.392 145.235 595.593 133.61 598.679 122.705L595.902 121.882C593.433 130.729 587.466 141.737 580.47 150.585C577.281 154.597 574.4 156.552 571.725 156.552H571.108C568.331 156.14 566.993 153.877 566.787 151.202V150.173C566.787 140.091 577.898 124.454 577.898 109.742C577.898 105.73 577.178 101.924 575.12 98.22C572.754 93.5905 568.125 91.7387 562.981 91.7387L561.335 91.8416C554.339 92.2531 549.607 97.397 545.594 102.952C540.553 109.948 536.438 117.458 532.838 125.174C536.644 109.845 541.788 91.6358 547.035 77.0272C548.887 77.1301 550.841 77.2329 552.693 77.2329C592.507 77.2329 625.428 47.6041 626.971 23.9422L627.074 22.1933C627.074 13.7573 623.062 6.04144 616.58 2.54359C612.671 0.691792 611.025 0.383159 607.115 0.0745249C600.634 0.0745249 595.285 1.92633 589.935 4.70403C547.446 26.9257 525.945 100.175 516.171 147.087C515.966 148.322 515.76 149.453 515.76 150.585C515.76 155.317 518.126 157.992 520.801 157.992C523.27 157.992 526.048 155.626 527.179 150.173C528.105 145.852 528.414 144.618 528.928 141.84C533.969 128.775 539.73 116.018 547.961 104.598C551.356 99.7632 555.574 95.1337 561.541 94.7222H562.158C566.273 94.7222 567.919 98.22 567.919 102.438C567.919 104.496 567.507 106.862 566.787 108.919C562.775 121.162 557.94 131.038 557.94 141.326C557.94 143.383 558.146 145.647 558.66 147.807C560.409 155.626 566.479 158.918 570.8 159.432H571.725ZM552.796 74.2495C551.15 74.2495 549.607 74.2495 548.064 74.1466C557.631 48.4271 580.676 3.67525 608.041 3.67525H608.556C610.613 3.77813 612.156 3.57237 615.243 5.11554C620.695 7.99612 624.09 14.8889 624.09 22.1933V23.7364C622.753 45.6494 591.067 74.2495 552.796 74.2495ZM615.14 159.535C630.263 159.535 642.814 137.828 650.53 122.911L647.958 121.573C640.962 135.05 628.926 156.655 615.14 156.655C613.597 156.655 612.156 156.449 610.613 155.935C604.646 153.465 603.618 145.647 603.515 140.194C603.515 136.902 604.235 129.906 606.19 123.528C608.761 125.586 611.951 126.717 615.243 126.717C624.605 126.717 634.275 118.384 635.201 101.101C635.201 97.9114 634.378 94.9279 631.395 93.0761C629.337 91.8416 626.971 91.2243 624.399 91.2243C610.819 91.2243 592.301 108.199 592.301 131.038C592.301 142.766 596.313 153.363 609.687 158.609C611.539 159.227 613.391 159.535 615.14 159.535ZM615.243 123.734C612.156 123.734 609.379 122.705 607.218 120.545C609.893 112.726 614.42 105.73 619.564 99.8661C621.827 97.4999 624.399 94.7222 627.279 94.7222C628.103 94.7222 628.926 95.0308 629.851 95.5452C631.806 96.6769 632.321 98.7344 632.321 100.998C631.395 116.532 623.164 123.734 615.243 123.734ZM644.049 159.947C645.489 159.947 646.929 159.432 648.472 158.712C657.011 155.214 662.67 146.881 662.67 137.828L662.567 135.77C668.636 132.17 676.558 128.157 686.846 123.734L685.714 121.162C675.941 125.38 668.122 129.186 662.052 132.684C659.789 122.396 652.69 115.812 652.69 107.582C652.69 105.73 652.999 103.775 653.925 101.615C655.262 98.9402 657.32 95.8538 660.098 94.8251C660.818 94.5164 661.538 94.4135 662.052 94.4135C664.624 94.4135 665.859 96.6769 665.859 99.8661C665.859 102.644 664.83 106.142 662.978 109.434L665.447 110.874C667.299 107.685 668.739 103.364 668.739 99.6603C668.739 96.0596 667.402 92.9732 664.11 91.8416H664.007C663.287 91.6358 662.155 91.4301 660.715 91.4301C655.982 91.4301 648.472 93.3848 643.946 101.615C642.094 105.01 641.374 108.302 641.374 111.491C641.374 122.499 650.016 132.067 651.147 139.68C641.065 147.087 639.213 152.231 639.11 154.7V155.317C639.11 156.963 639.933 158.404 641.271 159.227C642.3 159.741 643.123 159.947 644.049 159.947ZM643.637 156.963C643.328 156.963 643.02 156.963 642.711 156.758C642.197 156.449 641.888 155.935 641.888 155.111C641.888 152.745 644.563 148.424 651.353 143.075C651.044 148.116 646.826 156.963 643.637 156.963Z" fill="#F4F4F4"/>
</svg>
